<?xml version="1.0" encoding="UTF-8" standalone="no"?>
<svg width="8px" height="11px" viewBox="0 0 8 11" version="1.1" xmlns="http://www.w3.org/2000/svg" xmlns:xlink="http://www.w3.org/1999/xlink" xmlns:sketch="http://www.bohemiancoding.com/sketch/ns">
    <!-- Generator: Sketch 3.3 (11970) - http://www.bohemiancoding.com/sketch -->
    <title>flag_18+_numbers_6</title>
    <desc>Created with Sketch.</desc>
    <defs></defs>
    <g id="00" stroke="none" stroke-width="1" fill="none" fill-rule="evenodd" sketch:type="MSPage">
        <g id="0_00_UI_img_Covers" sketch:type="MSArtboardGroup" transform="translate(-529.000000, -995.000000)" fill="#3B393F">
            <path d="M536.286,1001.962 C536.286,1002.41934 536.209001,1002.844 536.055,1003.236 C535.900999,1003.628 535.684001,1003.96867 535.404,1004.258 C535.123999,1004.54733 534.785669,1004.776 534.389,1004.944 C533.992331,1005.112 533.556002,1005.196 533.08,1005.196 C532.594664,1005.196 532.149002,1005.119 531.743,1004.965 C531.336998,1004.811 530.984668,1004.58 530.686,1004.272 C530.387332,1003.964 530.154001,1003.57667 529.986,1003.11 C529.817999,1002.64333 529.734,1002.102 529.734,1001.486 C529.734,1000.562 529.866999,999.72667 530.133,998.98 C530.399001,998.23333 530.758331,997.582336 531.211,997.027 C531.663669,996.471664 532.190997,996.023668 532.793,995.683 C533.395003,995.342332 534.031997,995.116001 534.704,995.004 L535.11,996.446 C534.643331,996.520667 534.214002,996.665332 533.822,996.88 C533.429998,997.094668 533.082335,997.351332 532.779,997.65 C532.475665,997.948668 532.219001,998.282331 532.009,998.651 C531.798999,999.019669 531.652,999.399998 531.568,999.792 C531.754668,999.558665 531.997332,999.360334 532.296,999.197 C532.594668,999.033666 532.967998,998.952 533.416,998.952 C533.836002,998.952 534.223332,999.017333 534.578,999.148 C534.932668,999.278667 535.235999,999.472332 535.488,999.729 C535.740001,999.985668 535.935999,1000.30066 536.076,1000.674 C536.216001,1001.04734 536.286,1001.47666 536.286,1001.962 Z M534.522,1002.06 C534.522,1001.01466 534.008672,1000.492 532.982,1000.492 C532.608665,1000.492 532.293668,1000.576 532.037,1000.744 C531.780332,1000.912 531.600667,1001.108 531.498,1001.332 C531.479333,1001.43467 531.47,1001.52333 531.47,1001.598 L531.47,1001.822 C531.47,1002.046 531.502666,1002.26767 531.568,1002.487 C531.633334,1002.70633 531.728999,1002.90233 531.855,1003.075 C531.981001,1003.24767 532.141999,1003.38767 532.338,1003.495 C532.534001,1003.60233 532.767332,1003.656 533.038,1003.656 C533.476669,1003.656 533.833665,1003.50667 534.109,1003.208 C534.384335,1002.90933 534.522,1002.52667 534.522,1002.06 Z" id="flag_18+_numbers_6" sketch:type="MSShapeGroup"></path>
        </g>
    </g>
</svg>