<?xml version="1.0" encoding="UTF-8"?>
<svg width="40px" height="324px" viewBox="0 0 40 324" version="1.1" xmlns="http://www.w3.org/2000/svg" xmlns:xlink="http://www.w3.org/1999/xlink">
    <!-- Generator: Sketch 46.2 (44496) - http://www.bohemiancoding.com/sketch -->
    <title>Icons</title>
    <desc>Created with Sketch.</desc>
    <defs></defs>
    <g id="1-5" stroke="none" stroke-width="1" fill="none" fill-rule="evenodd">
        <g id="Icons">
            <g id="Chevrons" transform="translate(10.000000, 18.000000)">
                <g id="Chevron_big_1">
                    <g id="1_audi" transform="translate(0.000000, 264.000000)">
                        <g id="Chevron_big_bg-Copy">
                            <g id="audio">
                                <g>
                                    <rect id="Rectangle-4226-Copy" fill-opacity="0" fill="#D8D8D8" x="0" y="0" width="20" height="20"></rect>
                                    <g id="Group-8" transform="translate(2.000000, 3.000000)" fill-rule="nonzero" fill="#FFFFFF">
                                        <path d="M12.9355499,8.06443872 C12.7486786,7.44779796 12.1766636,7 11.5,7 C10.6657972,7 10,7.67232308 10,8.50167562 L10,12.4983244 C10,13.3288106 10.6715729,14 11.5,14 C12.1809233,14 12.7496422,13.5520484 12.9356501,12.9363879 C13.5544553,12.7503807 14,12.1775963 14,11.4998351 L14,11 C14.5522847,11 15,10.5424361 15,10.0064025 L15,7.5 C15,3.35786438 11.6421356,0 7.5,0 C3.35786438,0 -1.77635684e-15,3.35786438 -1.77635684e-15,7.5 L-1.77635684e-15,10.0064025 C-1.77635684e-15,10.5551512 0.453186035,11 1,11 L1,11.4998351 C1,12.174674 1.44843418,12.748337 2.06445009,12.9355613 C2.25132137,13.552202 2.8233364,14 3.5,14 C3.73144,14 3.94991746,13.9482499 4.14481057,13.8557537 C4.65239055,13.6148564 5,13.0975826 5,12.4983244 L5,8.50167562 C5,7.67118943 4.32842712,7 3.5,7 C2.81907674,7 2.25035776,7.44795162 2.06434986,8.06361209 C1.50446115,8.23190956 1.08641125,8.71684017 1.01188152,9.30967392 C1.00413796,9.28873098 1,9.26876204 1,9.25 L1,7.5 C1,3.91014913 3.91014913,1 7.5,1 C11.0898509,1 14,3.91014913 14,7.5 L14,9.25 C14,9.26886071 13.9958184,9.28894106 13.987996,9.31000443 C13.9128985,8.71937078 13.4927879,8.23379874 12.9355499,8.06443872 Z" id="Combined-Shape"></path>
                                    </g>
                                </g>
                            </g>
                        </g>
                    </g>
                    <g id="1_free" transform="translate(0.000000, 210.000000)">
                        <g id="Free">
                            <g>
                                <polygon id="Star-625" fill="#FFFFFF" points="10 17.3497705 6.90983006 20 5.89135341 15.9460892 1.90983006 16.1803399 3.35207017 12.271204 0 10 3.35207017 7.72879602 1.90983006 3.81966011 5.89135341 4.05391079 6.90983006 1.11022302e-15 10 2.65022954 13.0901699 0 14.1086466 4.05391079 18.0901699 3.81966011 16.6479298 7.72879602 20 10 16.6479298 12.271204 18.0901699 16.1803399 14.1086466 15.9460892 13.0901699 20"></polygon>
                                <rect id="Rectangle-3981" fill="#FFFFFF" x="1" y="7" width="18" height="7"></rect>
                                <path d="M2,13 L2,8 L5,8 L5,9 L3,9 L3,10 L5,10 L5,11 L3,11 L3,13 L2,13 Z M6,13 L6,8 C6,8 9.38960412,8.04490633 10,8 C9.9283018,8.22453433 10,10 10,10 L9,11 L10,13 L9,13 L8.05651855,11 L7,11 L7,13 L6,13 Z M7,10 L8,10 L9,9 L7,9 L7,10 Z M11,13 L11,8 L14,8 L14,9 L12,9 L12,10 L14,10 L14,11 L12,11 L12,12 L14,12 L14,13 L11,13 Z M15,13 L15,8 L18,8 L18,9 L16,9 L16,10 L18,10 L18,11 L16,11 L16,12 L18,12 L18,13 L15,13 Z" id="free" fill="#21AE05"></path>
                            </g>
                        </g>
                    </g>
                    <g id="1_self" transform="translate(0.000000, 156.000000)" fill="#FFFFFF">
                        <g id="Nib">
                            <rect id="Rectangle" opacity="0.00981657609" x="1" y="0" width="20" height="20"></rect>
                            <path d="M19,4.58143682 C19,4.58143682 15.588579,2.5199421 10.345948,6.1603546 C6.23613192,9.01415558 3.76879042,13.0616488 2.8944014,14.6775513 L1.40308537,15.7766926 L1,16.8559804 L2.08004723,17 C2.08004723,17 3.03606156,16.1669778 4.13039471,15.3298439 C5.33384222,15.2581553 7.08833232,15.0915103 8.93687658,14.704835 L8.90849433,11.8891912 L11.3346432,14.0749031 C12.3949422,13.7308086 13.4214798,13.2963066 14.3275243,12.7476594 C14.5515431,12.6120069 14.7648493,12.4692934 14.9679536,12.3205749 L12.9598822,9.14805076 L16.9814091,10.2689471 C18.8748473,7.60942705 19,4.58143682 19,4.58143682 Z" id="Path-967-Copy" transform="translate(10.000000, 10.500000) rotate(-15.000000) translate(-10.000000, -10.500000) "></path>
                        </g>
                    </g>
                    <g id="1_new" transform="translate(0.000000, 104.000000)">
                        <g id="New">
                            <rect id="Rectangle" fill="#8A4498" opacity="0.014379529" x="0" y="0" width="20" height="20"></rect>
                            <path d="M4,11.2789073 C4,11.2789073 6.01913721,10.9212602 6.44546352,10.0783106 C6.87178983,9.23536097 7.20639231,7.96183998 7.66789206,7.4337836 C8.12939181,6.90572721 9.4815982,5.65555411 9.72766065,4.99408124 C9.9737231,4.33260837 9.89291516,2.32059682 10.1006204,2.10197572 C10.3083256,1.88335461 11.5721436,1.91777 11.9464678,3.21463888 C12.320792,4.51150775 12.198443,5.19071895 11.8409474,5.82884393 C11.4834519,6.46696891 10.9578213,7.56735169 10.9043031,7.94819511 C10.8507849,8.32903853 11.0234683,8.83101805 11.0234683,8.83101805 L15.4889511,8.83101767 C15.4889511,8.83101767 16.7906952,9.00071142 16.7906952,10.2683391 C16.7906952,11.5359667 15.9911098,11.6447414 15.9911098,11.6447414 C15.9911098,11.6447414 16.7906952,11.8016369 16.7906952,12.8906757 C16.7906952,13.9797146 15.9025696,14.112301 15.9025696,14.112301 C15.9025696,14.112301 16.5636173,14.1195122 16.5636173,15.2324225 C16.5636173,16.3453329 15.3968,16.3150764 15.3968,16.3150764 C15.3968,16.3150764 16.0558501,16.5686311 16.0558501,17.4036371 C16.0558501,18.2386431 15.0884566,18.4072855 14.8538691,18.4072855 L4,18.4072855 L4,11.2789073 Z" id="Path-222-Copy" fill="#FFFFFF"></path>
                        </g>
                    </g>
                    <g id="1_hit" transform="translate(0.000000, 51.000000)">
                        <g id="Trophy">
                            <rect id="Rectangle" fill="#09B3CB" opacity="0.00999999978" x="0" y="0" width="20" height="20"></rect>
                            <g stroke-width="1" transform="translate(2.000000, 2.000000)" fill="#FFFFFF">
                                <path d="M11,16 C11,14.3431458 9.43299662,13 7.5,13 C5.56700338,13 4,14.3431458 4,16 L11,16 L11,16 Z" id="Oval-433"></path>
                                <path d="M3.09082027,1 C3.09082027,6.79898987 5.34805196,11.5714286 7.83333333,11.5714286 C10.3186147,11.5714286 12.3333333,6.87041844 12.3333333,1.07142857 C12.3333333,1.04760043 12.3332993,1.02379082 12.3332314,1 C12.3332314,1 3.09082027,0.97617185 3.09082027,1 Z" id="Oval-433-Copy"></path>
                                <path d="M0.509202837,4.12540897 C0.503073742,4.24987873 0.5,4.37476753 0.5,4.5 C0.5,8.64213562 3.85786438,12 8,12 C12.1421356,12 15.5,8.64213562 15.5,4.5 C15.5,4.37476753 15.4969263,4.24987873 15.4907972,4.12540897 L15.4673872,3.65 L14.9914022,3.65 L1.00859775,3.65 L0.532612756,3.65 L0.509202837,4.12540897 L0.509202837,4.12540897 Z M1.50799267,4.17459103 L1.00859775,4.15 L1.00859775,4.65 L14.9914022,4.65 L14.9914022,4.15 L14.4920073,4.17459103 C14.4973299,4.28268114 14.5,4.39117096 14.5,4.5 C14.5,8.08985087 11.5898509,11 8,11 C4.41014913,11 1.5,8.08985087 1.5,4.5 C1.5,4.39117096 1.50267013,4.28268114 1.50799267,4.17459103 L1.50799267,4.17459103 Z" id="Shape" fill-rule="nonzero"></path>
                            </g>
                        </g>
                    </g>
                    <g id="1_best">
                        <g id="Star">
                            <rect id="Rectangle" fill="#FF4C00" opacity="0.00696331522" x="0" y="0" width="20" height="20"></rect>
                            <polygon id="Star-" fill="#FFFFFF" points="10.1491636 15.0525423 4.49466952 18.827446 6.46022161 12.4609698 1 8.42751242 7.86927206 8.26771748 10.1491636 2 12.4290551 8.26771748 19.2983272 8.42751242 13.8381055 12.4609698 15.8036576 18.827446"></polygon>
                        </g>
                    </g>
                </g>
            </g>
        </g>
    </g>
</svg>