<?xml version="1.0" encoding="UTF-8"?>
<svg width="16px" height="16px" viewBox="0 0 16 16" version="1.1" xmlns="http://www.w3.org/2000/svg" xmlns:xlink="http://www.w3.org/1999/xlink">
    <g stroke="none" stroke-width="1" fill="none" fill-rule="evenodd">
        <g transform="translate(-10.000000, -193.000000)">
            <g transform="translate(10.000000, 79.000000)">
                <g transform="translate(0.000000, 36.000000)">
                    <g>
                        <g transform="translate(0.000000, 78.000000)">
                            <g>
                                <g>
                                    <circle id="Oval" fill="#127D8C" fill-rule="nonzero" cx="8" cy="8" r="8"></circle>
                                    <path d="M8.5,1.5 C9.83333333,1.5 10.5,2.16666667 10.5,3.5 L10.5,6 L12.1107504,6 C12.6178366,6 13.0446525,6.37954584 13.103901,6.88315875 L13.8686069,13.3831588 C13.9331366,13.9316607 13.5407995,14.428621 12.9922976,14.4931506 C12.9535176,14.497713 12.9145037,14.5 12.8754563,14.5 L3.12454369,14.5 C2.57225894,14.5 2.12454369,14.0522847 2.12454369,13.5 C2.12454369,13.4609526 2.12683074,13.4219387 2.13139309,13.3831588 L2.89609897,6.88315875 C2.95534755,6.37954584 3.38216343,6 3.88924957,6 L5.5,6 L5.5,3.5 C5.5,2.16666667 6.16666667,1.5 7.5,1.5 L8.5,1.5 L8.5,1.5 Z M9.5,7.5 C8.83333333,7.5 8.33333333,7.83333333 8,8.5 C7.66666667,7.83333333 7.16666667,7.5 6.5,7.5 C5.5,7.5 5,8 5,9.5 C5,10.5 6.01171279,11.6089763 8.03513838,12.826929 C10.0117128,11.6089763 11,10.5 11,9.5 C11,8 10.5,7.5 9.5,7.5 Z M8,3 C7.33333333,3 7,3.33333333 7,4 L7,6 L9,6 L9,4 C9,3.33333333 8.66666667,3 8,3 Z" id="Rectangle-2" fill="#FFFFFF"></path>
                                </g>
                            </g>
                        </g>
                    </g>
                </g>
            </g>
        </g>
    </g>
</svg>