<?xml version="1.0" encoding="UTF-8"?>
<svg width="95px" height="21px" viewBox="0 0 95 21" version="1.1" xmlns="http://www.w3.org/2000/svg" xmlns:xlink="http://www.w3.org/1999/xlink">
    <!-- Generator: Sketch 48 (47235) - http://www.bohemiancoding.com/sketch -->
    <defs></defs>
    <g id="Page-1" stroke="none" stroke-width="1" fill="none" fill-rule="evenodd">
        <g id="logo-copy-4">
            <g id="logo-copy-2">
                <path d="M8.22062874,3.93381081 C8.14497006,5.72505405 8.05964072,7.35567568 7.96520958,8.82681081 C7.87020958,10.2973784 7.74278443,11.6226486 7.58293413,12.8003514 C7.42194611,13.9786216 7.20919162,15.0206757 6.94467066,15.9253784 C6.6801497,16.8306486 6.33997006,17.6127568 5.92413174,18.2728378 C5.65961078,18.707027 5.36152695,19.0651622 5.03101796,19.3478108 C4.70050898,19.6298919 4.35520958,19.8563514 3.99682635,20.0266216 C3.63730539,20.1963243 3.28290419,20.3138108 2.93362275,20.3802162 C2.58377246,20.4460541 2.25781437,20.478973 1.9557485,20.478973 C1.52113772,20.478973 1.15706587,20.4460541 0.864101796,20.3802162 C0.571137725,20.3138108 0.283862275,20.2150541 0,20.0828108 L0.42494012,16.7460811 C0.538143713,16.7841081 0.651347305,16.8119189 0.76511976,16.8306486 C0.878323353,16.8493784 0.992095808,16.859027 1.1052994,16.859027 C1.40736527,16.859027 1.7054491,16.7841081 1.99784431,16.632 C2.29080838,16.4821622 2.54110778,16.2273243 2.74988024,15.8686216 C3.03260479,15.4548649 3.27835329,14.847 3.48655689,14.045027 C3.69419162,13.2436216 3.87850299,12.2208649 4.03892216,10.9761892 C4.19934132,9.73151351 4.32733533,8.24732432 4.42176647,6.52191892 C4.51562874,4.79651351 4.58161677,2.78448649 4.6202994,0.484135135 L16.327485,0.484135135 L16.327485,20.2808919 L12.4438623,20.2808919 L12.4438623,3.93381081 L8.22062874,3.93381081 Z" id="Fill-1" fill="#000000"></path>
                <polygon id="Fill-2" fill="#000000" points="27.9647006 11.8247027 27.8799401 11.8247027 26.6608683 13.8889459 21.6150599 20.2808919 19.2906886 20.2808919 19.2906886 6.13994595 22.9757784 6.13994595 22.9757784 12.8707297 22.8056886 14.7942162 22.9188922 14.7942162 24.0816467 12.7861622 29.1837725 6.13994595 31.5081437 6.13994595 31.5081437 20.2808919 27.8236228 20.2808919 27.8236228 13.8321892"></polygon>
                <polygon id="Fill-3" fill="#000000" points="41.5121557 9.39210811 41.5121557 20.2803243 37.7138623 20.2803243 37.7138623 9.39210811 33.6607186 9.39210811 33.6607186 6.13937838 45.4526647 6.13937838 45.4526647 9.39210811"></polygon>
                <path d="M53.6539521,3.53764865 C53.2762275,3.53764865 52.9167066,3.55183784 52.5770958,3.58021622 C52.2369162,3.60802703 51.9627246,3.64151351 51.7550898,3.67954054 L51.7550898,10.0992973 C51.8301796,10.118027 51.9433832,10.1373243 52.0952695,10.1554865 C52.246018,10.1747838 52.4075749,10.188973 52.5770958,10.1980541 C52.7466168,10.2077027 52.9121557,10.2122432 53.0731437,10.2122432 L53.426976,10.2122432 C53.9378144,10.2122432 54.4435329,10.1657027 54.9435629,10.0709189 C55.4447305,9.97727027 55.8935629,9.80245946 56.2906287,9.54818919 C56.6876946,9.29335135 57.0034132,8.93975676 57.2400599,8.48683784 C57.4755689,8.03448649 57.5944611,7.44081081 57.5944611,6.70581081 C57.5944611,6.08318919 57.4812575,5.56954054 57.2542814,5.16372973 C57.0278743,4.75905405 56.7292216,4.43327027 56.3611677,4.18864865 C55.9931138,3.94345946 55.5715868,3.77318919 55.1,3.67954054 C54.6278443,3.58475676 54.1448802,3.53764865 53.6539521,3.53764865 M50.4939222,0.328054054 C51.4473353,0.242918919 52.3973353,0.200351351 53.3422156,0.200351351 C54.3246407,0.200351351 55.3127545,0.280945946 56.3042814,0.441 C57.2963772,0.601054054 58.1900599,0.92172973 58.9830539,1.40245946 C59.7771856,1.88318919 60.423982,2.55235135 60.9245808,3.40994595 C61.4246108,4.26867568 61.675479,5.38564865 61.675479,6.76143243 C61.675479,8.00610811 61.4593114,9.05781081 61.0235629,9.91540541 C60.5889521,10.7735676 60.0132635,11.4750811 59.2947904,12.0222162 C58.5763174,12.5693514 57.7594311,12.9655135 56.8435629,13.2101351 C55.9265569,13.4558919 54.9765569,13.5779189 53.9952695,13.5779189 L53.5401796,13.5779189 C53.331976,13.5779189 53.1158084,13.5728108 52.8882635,13.5637297 C52.6618563,13.5540811 52.4394311,13.5404595 52.2221257,13.5217297 C52.0048204,13.503 51.8483832,13.4837027 51.754521,13.464973 L51.754521,20.2808919 L47.8714671,20.2808919 L47.8714671,0.681081081 C48.6644611,0.530675676 49.5393713,0.412621622 50.4939222,0.328054054 Z" id="Fill-4" fill="#9D9C9F"></path>
                <path d="M69.0678443,8.62702703 C67.9158982,8.66051351 67.3777545,8.94997297 66.896497,9.51413514 C66.4186527,10.0754595 66.1427545,10.8416757 66.0500299,11.8031351 L71.3427246,11.8525135 C71.4178144,10.8348649 71.3262275,10.0487838 70.9416766,9.50221622 C70.5565569,8.95508108 69.8949701,8.60262162 69.0678443,8.62702703 M72.0082934,20.2099459 C71.0361078,20.5215405 70.0007784,20.6770541 68.9045808,20.6770541 C66.6177545,20.6770541 64.9458683,20.0124324 63.8872156,18.6826216 C62.8291317,17.3533784 62.3006587,15.5292162 62.3006587,13.2101351 C62.3006587,10.7219189 62.8956886,8.85462162 64.0857485,7.61051351 C65.2763772,6.36583784 66.9488323,5.74378378 69.1031138,5.74378378 C69.821018,5.74378378 70.5207186,5.838 71.2010778,6.02643243 C71.8814371,6.21486486 72.4855689,6.52645946 73.0151796,6.95951351 C73.5447904,7.3937027 73.9697305,7.9782973 74.2905689,8.7132973 C74.611976,9.4482973 74.7729641,10.3637838 74.7729641,11.4574865 C74.7729641,11.8525135 74.7490719,12.2770541 74.7018563,12.7294054 C74.6546407,13.1817568 74.5841018,13.6528378 74.4896707,14.1437838 L65.9459281,14.1437838 C66.0028144,15.3317027 66.375988,16.2267568 66.9317665,16.8300811 C67.486976,17.433973 68.3869162,17.7347838 69.6293114,17.7347838 C70.4006886,17.7347838 71.0821856,17.5849459 71.7056587,17.3817568 C72.4827246,17.1286216 73.2142814,16.7835405 73.2142814,16.7835405 L74.319012,19.0645946 C73.7518563,19.5169459 72.9816168,19.8989189 72.0082934,20.2099459 Z" id="Fill-5" fill="#9D9C9F"></path>
                <path d="M86.7520659,8.87221622 C86.7520659,8.87221622 85.624012,8.64348649 84.7354491,8.64348649 C82.2057186,8.64348649 80.5634132,10.0885135 80.5634132,13.2776757 C80.5634132,16.2693243 81.8160479,17.7472703 84.4578443,17.7472703 C85.3191018,17.7472703 86.9790419,17.5174054 86.9790419,17.5174054 L87.4870359,20.0731622 C86.793024,20.2939459 85.4300299,20.6276757 83.79,20.6276757 C78.647485,20.6276757 76.7565868,16.8834324 76.7565868,13.0835676 C76.7565868,9.25645946 78.9802695,5.817 84.0960479,5.817 C85.0409281,5.817 86.2070958,5.92767568 87.292485,6.20521622 L86.7520659,8.87221622" id="Fill-6" fill="#9D9C9F"></path>
                <path d="M92.5738024,10.1713784 C91.4178743,10.1713784 90.4820958,9.23772973 90.4820958,8.085 C90.4820958,6.93227027 91.4178743,5.99805405 92.5738024,5.99805405 C93.728024,5.99805405 94.6649401,6.93227027 94.6649401,8.085 C94.6649401,9.23772973 93.728024,10.1713784 92.5738024,10.1713784 Z" id="Fill-7" fill="#9D9C9F"></path>
                <path d="M94.6649401,18.4039459 C94.6649401,19.5561081 93.728024,20.4903243 92.5738024,20.4903243 C91.4178743,20.4903243 90.4820958,19.5561081 90.4820958,18.4039459 C90.4820958,17.2506486 91.4178743,16.3164324 92.5738024,16.3164324 C93.728024,16.3164324 94.6649401,17.2512162 94.6649401,18.4039459" id="Fill-8" fill="#9D9C9F"></path>
            </g>
        </g>
    </g>
</svg>