<?xml version="1.0" encoding="UTF-8" standalone="no"?>
<svg width="40px" height="23px" viewBox="0 0 40 23" version="1.1" xmlns="http://www.w3.org/2000/svg" xmlns:xlink="http://www.w3.org/1999/xlink" xmlns:sketch="http://www.bohemiancoding.com/sketch/ns">
    <!-- Generator: Sketch 3.3 (11970) - http://www.bohemiancoding.com/sketch -->
    <title>lptp_1</title>
    <desc>Created with Sketch.</desc>
    <defs>
        <path id="path-1" d="M40,20.4952442 C40,20.2217284 39.7847891,20.0003687 39.5086833,20.0008417 L0.491316691,20.0676828 C0.219969975,20.0681477 0,20.2846969 0,20.5008692 L0,20.5008692 C0,21.8782925 1.10674885,23 2.47199275,23 L37.5280073,23 C38.8989102,23 40,21.881101 40,20.5008692 L40,20.4952442 Z"></path>
        <path id="path-2" d="M38.8129888,22.453186 C38.9162723,22.2028983 38.7768404,22.0004024 38.5195396,22.0008664 L1.48046041,22.0676581 C1.21510945,22.0681366 1.06642258,22.284565 1.20602461,22.5124379 C1.20602461,22.5124379 1.10674885,23 2.47199275,23 L37.5280073,23 C38.8989102,23 38.8129888,22.453186 38.8129888,22.453186 Z"></path>
        <rect id="path-3" x="6" y="2" width="28" height="18"></rect>
    </defs>
    <g id="00" stroke="none" stroke-width="1" fill="none" fill-rule="evenodd" sketch:type="MSPage">
        <g id="0_00_UI_Buttons-Copy" sketch:type="MSArtboardGroup" transform="translate(-515.000000, -3251.000000)">
            <g id="lptp_1" sketch:type="MSLayerGroup" transform="translate(515.000000, 3251.000000)">
                <g id="Rectangle-362">
                    <use fill="#FF4C00" fill-rule="evenodd" sketch:type="MSShapeGroup" xlink:href="#path-1"></use>
                    <use fill="none" xlink:href="#path-1"></use>
                </g>
                <g id="Rectangle-362-Copy">
                    <use fill="#B23500" fill-rule="evenodd" sketch:type="MSShapeGroup" xlink:href="#path-2"></use>
                    <use fill="none" xlink:href="#path-2"></use>
                </g>
                <rect id="Rectangle-363" fill="#B33500" sketch:type="MSShapeGroup" x="16" y="20" width="9" height="1"></rect>
                <rect id="Rectangle-364" fill="#FF4C00" sketch:type="MSShapeGroup" x="4" y="0" width="32" height="20"></rect>
                <g id="Rectangle-365">
                    <use fill="#EFEEE9" fill-rule="evenodd" sketch:type="MSShapeGroup" xlink:href="#path-3"></use>
                    <use fill="none" xlink:href="#path-3"></use>
                </g>
                <g id="Group-+-Group" transform="translate(9.000000, 6.000000)" fill="#B9B9B9" sketch:type="MSShapeGroup">
                    <path d="M12,3 L22,3 L22,4 L12,4 L12,3 Z M12,6 L22,6 L22,7 L12,7 L12,6 Z M12,9 L22,9 L22,10 L12,10 L12,9 Z M12,0 L22,0 L22,1 L12,1 L12,0 Z" id="Rectangle-343"></path>
                    <path d="M0,3 L10,3 L10,4 L0,4 L0,3 Z M0,6 L10,6 L10,7 L0,7 L0,6 Z M0,9 L10,9 L10,10 L0,10 L0,9 Z M0,0 L10,0 L10,1 L0,1 L0,0 Z" id="Rectangle-343"></path>
                </g>
            </g>
        </g>
    </g>
</svg>