<?xml version="1.0" encoding="UTF-8" standalone="no"?>
<svg width="17px" height="25px" viewBox="0 0 17 25" version="1.1" xmlns="http://www.w3.org/2000/svg" xmlns:xlink="http://www.w3.org/1999/xlink" xmlns:sketch="http://www.bohemiancoding.com/sketch/ns">
    <!-- Generator: Sketch 3.3 (11970) - http://www.bohemiancoding.com/sketch -->
    <title>reader_1</title>
    <desc>Created with Sketch.</desc>
    <defs>
        <linearGradient x1="100%" y1="-16.2950304%" x2="-92.7939967%" y2="185.451931%" id="linearGradient-1">
            <stop stop-color="#FFFFFF" stop-opacity="0.5" offset="0%"></stop>
            <stop stop-color="#000000" stop-opacity="0.5" offset="100%"></stop>
        </linearGradient>
        <path id="path-2" d="M0,1.00409459 C0,0.449548459 0.454708934,0 0.999960201,0 L16.0000398,0 C16.5523026,0 17,0.452669652 17,1.00409459 L17,23.7206216 C17,23.7206216 14.0583308,25 8.5,25 C2.94166917,25 0,23.7206216 0,23.7206216 L0,1.00409459 Z"></path>
        <path id="path-3" d="M0,0 L17,0 L17,22.7206216 C17,22.7206216 14.0583308,24 8.5,24 C2.94166917,24 0,22.7206216 0,22.7206216 L0,0 Z"></path>
        <rect id="path-4" x="2" y="2" width="13" height="17"></rect>
    </defs>
    <g id="00" stroke="none" stroke-width="1" fill="none" fill-rule="evenodd" sketch:type="MSPage">
        <g id="0_00_UI_Buttons-Copy" sketch:type="MSArtboardGroup" transform="translate(-587.000000, -3250.000000)">
            <g id="reader_1" sketch:type="MSLayerGroup" transform="translate(587.000000, 3250.000000)">
                <g id="Group">
                    <g id="Rectangle-331">
                        <use fill="#B23500" fill-rule="evenodd" sketch:type="MSShapeGroup" xlink:href="#path-2"></use>
                        <use fill="none" xlink:href="#path-2"></use>
                    </g>
                    <g id="Rectangle-331-Copy-2">
                        <use fill="#FF4C00" fill-rule="evenodd" sketch:type="MSShapeGroup" xlink:href="#path-3"></use>
                        <use fill="none" xlink:href="#path-3"></use>
                    </g>
                    <g id="Rectangle-332">
                        <use fill="#EFEEE9" fill-rule="evenodd" sketch:type="MSShapeGroup" xlink:href="#path-4"></use>
                        <use fill="none" xlink:href="#path-4"></use>
                    </g>
                    <path d="M4,4 L13,4 L13,5 L4,5 L4,4 Z M4,7 L13,7 L13,8 L4,8 L4,7 Z M4,10 L13,10 L13,11 L4,11 L4,10 Z M4,13 L13,13 L13,14 L4,14 L4,13 Z M4,16 L13,16 L13,17 L4,17 L4,16 Z" id="Rectangle-343" fill="#B9B9B9" sketch:type="MSShapeGroup"></path>
                </g>
            </g>
        </g>
    </g>
</svg>