<?xml version="1.0" encoding="UTF-8" standalone="no"?>
<svg width="210px" height="30px" viewBox="0 0 210 30" version="1.1" xmlns="http://www.w3.org/2000/svg" xmlns:xlink="http://www.w3.org/1999/xlink" xmlns:sketch="http://www.bohemiancoding.com/sketch/ns">
    <!-- Generator: Sketch 3.4.2 (15857) - http://www.bohemiancoding.com/sketch -->
    <title>social_icons_big</title>
    <desc>Created with Sketch.</desc>
    <defs></defs>
    <g id="00" stroke="none" stroke-width="1" fill="none" fill-rule="evenodd" sketch:type="MSPage">
        <g id="0_00_UI_img_" sketch:type="MSArtboardGroup" transform="translate(-41.000000, -1115.000000)">
            <g sketch:type="MSLayerGroup" transform="translate(41.000000, 1115.000000)" id="social_icons_big">
                <g sketch:type="MSShapeGroup">
                    <g id="gp-copy" transform="translate(120.000000, 0.000000)">
                        <rect id="Rectangle-2676" x="0" y="0" width="30" height="30"></rect>
                        <path d="M13.0561403,24.0072371 C12.3774229,24.2028349 11.6454863,24.3030529 10.8762272,24.3030529 C10.0205734,24.3030529 9.19671275,24.2042172 8.42952712,24.0100018 C6.94353693,23.6360852 5.84459535,22.9248834 5.33313826,22.0090987 C5.11196763,21.6123739 5,21.1907674 5,20.7539554 C5,20.3033202 5.10782068,19.8471558 5.32000626,19.3944471 C6.13557297,17.65964 8.28023694,16.4936561 10.6571301,16.4936561 L10.7262459,16.4936561 C10.5334128,16.1536062 10.4387241,15.8011155 10.4387241,15.4313459 C10.4387241,15.2461155 10.4629146,15.0588116 10.5112957,14.8687431 C8.01897913,14.8106858 6.15285192,12.9853369 6.15285192,10.578724 C6.15285192,8.87778358 7.51097783,7.22315078 9.45382361,6.55341846 C10.0357788,6.35229142 10.6281014,6.25 11.211439,6.25 L16.5423424,6.25 C16.7248081,6.25 16.8837745,6.3674969 16.9404495,6.54028645 C16.9985068,6.71445833 16.9349202,6.90314452 16.7877035,7.01027405 L15.5954556,7.87283951 C15.5235751,7.92398522 15.4371804,7.95232271 15.3487121,7.95232271 L14.9222675,7.95232271 C15.4745029,8.61237882 15.7972738,9.55304516 15.7972738,10.6118996 C15.7972738,11.7806481 15.2063335,12.885119 14.1315825,13.7262585 C13.3015015,14.3731826 13.2676347,14.549428 13.2676347,14.9212711 C13.2786932,15.1251628 13.8578838,15.7866012 14.4944405,16.2372364 C15.9818131,17.2898703 16.5354308,18.3203873 16.5354308,20.0441359 C16.5354308,21.8376915 15.169011,23.3941798 13.0561403,24.0072371 L13.0561403,24.0072371 L13.0561403,24.0072371 Z M25.0974989,14.8625227 C25.0974989,15.0933695 24.9088127,15.2806734 24.6779659,15.2806734 L21.6486193,15.2806734 L21.6486193,18.3114022 C21.6486193,18.5436314 21.4613155,18.7309352 21.2290863,18.7309352 L20.3665208,18.7309352 C20.1342917,18.7309352 19.9469878,18.5436314 19.9469878,18.3114022 L19.9469878,15.2806734 L16.9155678,15.2806734 C16.6861033,15.2806734 16.4974171,15.0933695 16.4974171,14.8625227 L16.4974171,13.9985749 C16.4974171,13.767728 16.6861033,13.5790418 16.9155678,13.5790418 L19.9462966,13.5790418 L19.9462966,10.5496953 C19.9462966,10.3174662 20.1336005,10.1301623 20.3658297,10.1301623 L21.2283951,10.1301623 C21.4606243,10.1301623 21.6479282,10.3174662 21.6479282,10.5496953 L21.6479282,13.5790418 L24.6772747,13.5790418 C24.9081215,13.5790418 25.0968077,13.767728 25.0968077,13.9985749 L25.0968077,14.8625227 L25.0974989,14.8625227 L25.0974989,14.8625227 Z M11.4353742,13.4885001 C11.8701128,13.4885001 12.2371178,13.3170929 12.5204927,12.9929397 C12.9662897,12.4870118 13.1618875,11.6548573 13.0457729,10.770866 C12.8377343,9.19018709 11.7104552,7.87767762 10.5320304,7.84311971 L10.4850317,7.84311971 C10.0675721,7.84311971 9.69642015,8.01314463 9.41304527,8.33729784 C8.97277748,8.83838756 8.78892939,9.63045488 8.90435282,10.5116816 C9.11100913,12.0895959 10.2624787,13.453251 11.416713,13.4885001 L11.4353742,13.4885001 L11.4353742,13.4885001 Z M12.7216197,18.2485068 C12.6055051,18.1704059 12.4852436,18.0881581 12.3615263,18.0031456 C11.9986682,17.891178 11.6123107,17.8331207 11.2183506,17.8275914 L11.1685872,17.8275914 C9.35429682,17.8275914 7.76186827,18.9279153 7.76186827,20.1816764 C7.76186827,21.5439492 9.12483229,22.613171 10.8658599,22.613171 C13.1618875,22.613171 14.3257979,21.8217948 14.3257979,20.2604684 C14.3257979,20.1118694 14.308519,19.9591234 14.2732699,19.8070686 C14.1177593,19.1988494 13.5613769,18.8207858 12.7216197,18.2485068 L12.7216197,18.2485068 Z" id="Shape-2" fill="#FFFFFF"></path>
                    </g>
                    <g id="ok-copy" transform="translate(30.000000, 0.000000)">
                        <rect id="Rectangle-2670" x="0" y="0" width="30" height="30"></rect>
                        <path d="M15.3366333,8.02499208 C16.4811895,8.02499208 17.4120172,8.98356222 17.4120172,10.1621758 C17.4120172,11.3396281 16.4811895,12.2983959 15.3366333,12.2983959 C14.1932286,12.2983959 13.2612493,11.3396281 13.2612493,10.1621758 C13.2612493,8.98356222 14.1932286,8.02499208 15.3366333,8.02499208 L15.3366333,8.02499208 L15.3366333,8.02499208 Z M15.3366333,15.3222515 C18.1014526,15.3222515 20.3490095,13.007768 20.3490095,10.1621758 C20.3490095,7.31532355 18.1014526,5 15.3366333,5 C12.5724137,5 10.324281,7.31532355 10.324281,10.1621758 C10.324281,13.007768 12.5724137,15.3222515 15.3366333,15.3222515 L15.3366333,15.3222515 L15.3366333,15.3222515 Z M17.3645113,19.5330223 C18.3849524,19.2935589 19.3690443,18.8778828 20.2752314,18.2915532 C20.9610918,17.8464508 21.1678624,16.9126868 20.7356067,16.2063043 C20.3039268,15.49839 19.3977158,15.2854623 18.7106318,15.7305895 C16.6575612,17.0604366 14.0139539,17.0598683 11.9620829,15.7305895 C11.2749029,15.2854623 10.3688118,15.49839 9.93758782,16.2063043 C9.50533212,16.913255 9.71152692,17.8464508 10.3974833,18.2915532 C11.3035984,18.8772898 12.2876663,19.2935589 13.3081314,19.5330223 L10.5058352,22.4187391 C9.93290921,23.0093184 9.93290921,23.9666284 10.506411,24.5570841 C10.7934858,24.8521143 11.1689263,24.9998888 11.5443909,24.9998888 C11.9205032,24.9998888 12.2965196,24.852139 12.5835704,24.5570841 L15.3360094,21.721449 L18.0908717,24.5570841 C18.6637977,25.1476386 19.5933538,25.1476386 20.1668315,24.5570841 C20.7408851,23.9666284 20.7408851,23.0086266 20.1668315,22.4187391 L17.3645353,19.5330223 L17.3645113,19.5330223 L17.3645113,19.5330223 Z" id="Shape" fill="#FFFFFF"></path>
                    </g>
                    <g id="fb-copy" transform="translate(60.000000, 0.000000)">
                        <rect id="Rectangle-2672" x="0" y="0" width="30" height="30"></rect>
                        <path d="M16.9909085,15.877031 L19.9391931,15.877031 L20.3806569,12.3216481 L16.9909085,12.3216481 L16.9909085,10.0517608 C16.9909085,9.02239539 17.2661192,8.32091684 18.6873229,8.32091684 L20.5,8.32009415 L20.5,5.14013117 C20.1865044,5.09680294 19.1104804,5 17.8586101,5 C15.2451198,5 13.4558536,6.65689344 13.4558536,9.69965036 L13.4558536,12.3216481 L10.5,12.3216481 L10.5,15.877031 L13.4558536,15.877031 L13.4558536,25 L16.9909085,25 L16.9909085,15.877031 L16.9909085,15.877031 Z" id="f" fill="#FFFFFF"></path>
                    </g>
                    <g id="vk-copy">
                        <rect id="Rectangle-2669" x="0" y="0" width="30" height="30"></rect>
                        <path d="M21.5583015,15.5362226 C20.9306516,14.8583985 20.0949026,14.4093148 19.051278,14.1894195 L19.051278,14.0985055 C19.7773895,13.7956456 20.3463649,13.322042 20.7585396,12.6779188 C21.1706025,12.0341315 21.3766899,11.2990944 21.3766899,10.4733671 C21.3766899,9.76117043 21.2274889,9.13238616 20.9287516,8.58656648 C20.6299026,8.04108269 20.1781645,7.60565854 19.5729785,7.27984617 C19.0131675,6.9767623 18.4141284,6.777916 17.774967,6.68319529 C17.1358057,6.58836262 16.1963424,6.54100226 14.955795,6.54100226 L8.98864985,6.54100226 L8.98864985,23.4633157 L15.7499689,23.4633157 C16.9221186,23.4633157 17.888628,23.3571748 18.6483795,23.1448929 C19.4085781,22.9330589 20.1064139,22.5769046 20.7413284,22.0767658 C21.2785637,21.6600395 21.7059379,21.1333655 22.023451,20.4969677 C22.340964,19.860458 22.5,19.121838 22.5,18.2808838 C22.5,17.1294562 22.1860633,16.2143825 21.5583015,15.5362226 L21.5583015,15.5362226 Z M17.02058,20.0309776 C16.5818062,20.220531 16.1509674,20.3229772 15.7273931,20.3378683 C15.3038188,20.3532072 14.5399321,20.3608207 13.4359567,20.3608207 L13.20897,20.3608207 L13.20897,16.1215652 L13.9915208,16.1215652 C14.7478077,16.1215652 15.3510937,16.1271633 15.8010436,16.1386955 C16.2509936,16.1500038 16.6046055,16.2052016 16.8617676,16.3035051 C17.2853419,16.455103 17.602855,16.6783572 17.8146422,16.9739396 C18.0264293,17.26941 18.1324906,17.6784109 18.1324906,18.2013901 C18.1324906,18.610391 18.0431935,18.9762861 17.865717,19.2981797 C17.6880169,19.6200734 17.4063791,19.8646006 17.02058,20.0309776 L17.02058,20.0309776 Z M16.1696315,12.961969 C15.8594947,13.1060654 15.559081,13.1855591 15.2679435,13.2008981 C14.976806,13.216125 14.4680698,13.2235146 13.7419584,13.2235146 L13.20897,13.2235146 L13.20897,9.64349731 L13.5039074,9.64349731 C14.2601943,9.64349731 14.8291697,9.64920742 15.2110572,9.66073961 C15.5930564,9.67215984 15.923869,9.73832998 16.2039422,9.85947396 C16.4988795,9.98867927 16.7160312,10.1967065 16.8560678,10.4844515 C16.9961044,10.7726443 17.065955,11.0528877 17.065955,11.3255176 C17.065955,11.6970109 17.0014689,12.0227113 16.8731672,12.3029547 C16.7443068,12.583534 16.5100556,12.8029815 16.1696315,12.961969 L16.1696315,12.961969 L16.1696315,12.961969 Z" id="Path-11" fill="#FFFFFF"></path>
                    </g>
                    <g id="mail-copy" transform="translate(150.000000, 0.000000)">
                        <rect id="Rectangle-2673" x="0" y="0" width="30" height="30"></rect>
                        <path d="M18.0995367,15.3860947 C17.9930615,17.47185 16.4558059,18.7261868 14.5996724,18.7261868 L14.529469,18.7261868 C12.3873437,18.7261868 11.1992878,17.0293228 11.1992878,15.101767 C11.1992878,12.9438202 12.6365907,11.5803561 14.5213035,11.5803561 C16.6224768,11.5803561 18.0041397,13.1307057 18.104217,14.9648313 L18.0995367,15.3860947 L18.0995367,15.3860947 L18.0995367,15.3860947 Z M14.5400742,20.5925341 C15.9715268,20.5925341 17.3174906,19.9553732 18.305417,18.9574554 L18.305417,18.9536439 C18.305417,19.4326054 18.62544,19.7938638 19.069962,19.7938638 L19.1822626,19.7944405 C19.8771768,19.7944405 20.0199487,19.1324051 20.0199487,18.9225005 L20.0234339,11.4743632 C19.9743413,10.9865753 20.5228989,10.7348454 20.8271884,11.047809 C22.0146468,12.2767697 23.4349216,17.3660577 20.088982,20.314751 C16.9705314,23.0639209 12.7863331,22.6109875 10.561084,21.0658285 C8.19557743,19.4226254 6.68177272,15.7852418 8.15231022,12.3688458 C9.75511394,8.64264573 14.3417869,7.53138801 17.067671,8.64038896 C18.4481639,9.2011457 19.0856956,7.3217844 17.6520273,6.70784316 C15.4858785,5.77858126 9.45674943,5.87231237 6.64014857,10.7862746 C4.73733727,14.1045262 4.83848495,19.942635 9.88551305,22.9675318 C13.7462528,25.2818977 18.836573,24.6415021 21.9059311,21.4125684 C25.1143516,18.0368193 24.9271425,11.7160129 21.7975888,9.25894404 C20.3797536,8.14259606 18.2739001,9.22887887 18.2872188,10.8558081 L18.2726305,11.3876782 C17.285202,10.4008437 15.9715268,9.82509194 14.5400742,9.82509194 C11.7117728,9.82509194 9.22336041,12.3311327 9.22336041,15.1798261 C9.22336041,18.0568043 11.7117728,20.5925341 14.5400742,20.5925341 L14.5400742,20.5925341 L14.5400742,20.5925341 L14.5400742,20.5925341 Z" id="path24-2" fill="#FFFFFF" transform="translate(14.864896, 15.299973) scale(1, -1) translate(-14.864896, -15.299973) "></path>
                    </g>
                    <g id="tw-copy" transform="translate(90.000000, 0.000000)">
                        <rect id="Rectangle-2671" x="0" y="0" width="30" height="30"></rect>
                        <path d="M11.200367,23.764668 C8.89380442,23.764668 6.74686248,23.0849543 4.93933296,21.9199608 C5.25886562,21.9578813 5.58400538,21.9772807 5.91365997,21.9772807 C7.82721491,21.9772807 9.5883583,21.3208464 10.9862044,20.2196149 C9.19891878,20.1864528 7.69053241,18.9993512 7.17081852,17.3680382 C7.42015302,17.4159878 7.6760413,17.441683 7.93921154,17.441683 C8.3117569,17.441683 8.6725783,17.3915372 9.01534042,17.2976876 C7.14678803,16.9205325 5.73896561,15.2609621 5.73896561,13.2715275 C5.73896561,13.2542509 5.73896561,13.2370476 5.73925689,13.2199175 C6.28999195,13.5274542 6.91973634,13.7121518 7.58931309,13.7334546 C6.49337725,12.997153 5.77224419,11.7403597 5.77224419,10.3158524 C5.77224419,9.56337231 5.97366337,8.85803661 6.32523667,8.25160163 C8.33971965,10.7357596 11.3492832,12.3704401 14.7438444,12.5416679 C14.6742288,12.241159 14.6380374,11.9277659 14.6380374,11.6059542 C14.6380374,9.33841158 16.4668302,7.5 18.7225648,7.5 C19.8972915,7.5 20.9587836,7.99867637 21.7038743,8.79669033 C22.6342182,8.61250511 23.5083454,8.27078149 24.297492,7.80028927 C23.9925233,8.75906267 23.3449381,9.56373834 22.5016137,10.0719314 C23.3278255,9.97266468 24.115006,9.75194987 24.8474989,9.4253798 C24.2998951,10.2487961 23.6073801,10.971994 22.8094223,11.5509036 C22.8172869,11.7269631 22.8212191,11.9040473 22.8212191,12.0820833 C22.8212191,17.5080072 18.7130254,23.764668 11.200367,23.764668" id="Fill-1" fill="#FFFFFF"></path>
                    </g>
                    <g id="gg-copy" transform="translate(180.000000, 0.000000)">
                        <rect id="Rectangle-2673" x="0" y="0" width="30" height="30"></rect>
                        <g id="Group" transform="translate(4.400613, 3.750000)">
                            <g id="Group-3" transform="translate(0.000000, 0.580886)" fill="#2DA5D2">
                                <g id="Fill-1-Clipped">
                                    <path d="M11.5733333,1.40866935 C10.2586667,1.40866935 9.00933333,1.69040323 7.87533333,2.19423387 L5.82933333,0.0932258065 L5.82466667,0.0932258065 C3.66466667,1.06592742 1.93333333,2.85504032 0.999333333,5.08354839 L3.04866667,7.18866935 L3.04733333,7.19072581 C2.55266667,8.35879032 2.258,9.63104839 2.258,10.9869355 C2.258,16.2781855 6.428,20.5658871 11.5733333,20.5658871 C16.7166667,20.5658871 20.888,16.2768145 20.888,10.9869355 C20.888,5.69705645 16.7173333,1.40866935 11.5733333,1.40866935" id="Fill-1"></path>
                                </g>
                            </g>
                            <path d="M10.624,15.545684 C11.5573333,13.3178614 13.29,11.5287485 15.4493333,10.5553614 L15.4506667,10.5553614 L7.87666667,2.77923241 L7.87333333,2.77854693 C5.712,3.75193403 3.98066667,5.54036145 3.04733333,7.77024048 L10.624,15.545684" id="Fill-4" fill="#192E3B"></path>
                            <path d="M15.992,13.2116114 C14.7373333,13.7764502 13.732,14.8170147 13.1886667,16.1105227 L16.726,16.8624985 L15.992,13.2116114" id="Fill-5" fill="#192E3B"></path>
                            <path d="M16.096,13.7264098 L16.726,16.8638695 C16.7266667,16.8412485 16.4133333,15.2886276 16.096,13.7264098" id="Fill-6" fill="#FFFFFF"></path>
                            <path d="M15.992,13.2129824 C15.7073333,11.8166518 15.4506667,10.5560469 15.4506667,10.5560469 L15.448,10.5567324 C13.2893333,11.5301195 11.5573333,13.3178614 10.6233333,15.547055 L13.1886667,16.1105227 C13.7333333,14.8211276 14.7406667,13.7764502 15.992,13.2129824" id="Fill-7" fill="#FFFFFF"></path>
                        </g>
                    </g>
                </g>
            </g>
        </g>
    </g>
</svg>