<?xml version="1.0" encoding="UTF-8"?>
<svg width="216px" height="24px" viewBox="0 0 216 24" version="1.1" xmlns="http://www.w3.org/2000/svg" xmlns:xlink="http://www.w3.org/1999/xlink">
    <!-- Generator: Sketch 59.1 (86144) - https://sketch.com -->
    <title>soc-icons-6</title>
    <desc>Created with Sketch.</desc>
    <defs>
        <path d="M8.3161609,0 L15.6838391,0 C22.407904,0 24,1.59209598 24,8.3161609 L24,15.6838391 C24,22.407904 22.407904,24 15.6838391,24 L8.3161609,24 C1.59209598,24 0,22.407904 0,15.6838391 L0,8.3161609 C0,1.59209598 1.59209598,0 8.3161609,0" id="path-1"></path>
        <path d="M8.3161609,0 L15.6838391,0 C22.407904,0 24,1.59209598 24,8.3161609 L24,15.6838391 C24,22.407904 22.407904,24 15.6838391,24 L8.3161609,24 C1.59209598,24 0,22.407904 0,15.6838391 L0,8.3161609 C0,1.59209598 1.59209598,0 8.3161609,0" id="path-3"></path>
        <path d="M8.3161609,0 L15.6838391,0 C22.407904,0 24,1.59209598 24,8.3161609 L24,15.6838391 C24,22.407904 22.407904,24 15.6838391,24 L8.3161609,24 C1.59209598,24 0,22.407904 0,15.6838391 L0,8.3161609 C0,1.59209598 1.59209598,0 8.3161609,0" id="path-5"></path>
        <path d="M8.3161609,0 L15.6838391,0 C22.407904,0 24,1.59209598 24,8.3161609 L24,15.6838391 C24,22.407904 22.407904,24 15.6838391,24 L8.3161609,24 C1.59209598,24 0,22.407904 0,15.6838391 L0,8.3161609 C0,1.59209598 1.59209598,0 8.3161609,0" id="path-7"></path>
        <path d="M8.3161609,0 L15.6838391,0 C22.407904,0 24,1.59209598 24,8.3161609 L24,15.6838391 C24,22.407904 22.407904,24 15.6838391,24 L8.3161609,24 C1.59209598,24 0,22.407904 0,15.6838391 L0,8.3161609 C0,1.59209598 1.59209598,0 8.3161609,0" id="path-9"></path>
        <path d="M8.3161609,0 L15.6838391,0 C22.407904,0 24,1.59209598 24,8.3161609 L24,15.6838391 C24,22.407904 22.407904,24 15.6838391,24 L8.3161609,24 C1.59209598,24 0,22.407904 0,15.6838391 L0,8.3161609 C0,1.59209598 1.59209598,0 8.3161609,0" id="path-11"></path>
        <path d="M8.3161609,0 L15.6838391,0 C22.407904,0 24,1.59209598 24,8.3161609 L24,15.6838391 C24,22.407904 22.407904,24 15.6838391,24 L8.3161609,24 C1.59209598,24 0,22.407904 0,15.6838391 L0,8.3161609 C0,1.59209598 1.59209598,0 8.3161609,0" id="path-13"></path>
        <path d="M8.3161609,0 L15.6838391,0 C22.407904,0 24,1.59209598 24,8.3161609 L24,15.6838391 C24,22.407904 22.407904,24 15.6838391,24 L8.3161609,24 C1.59209598,24 0,22.407904 0,15.6838391 L0,8.3161609 C0,1.59209598 1.59209598,0 8.3161609,0" id="path-15"></path>
        <path d="M8.3161609,0 L15.6838391,0 C22.407904,0 24,1.59209598 24,8.3161609 L24,15.6838391 C24,22.407904 22.407904,24 15.6838391,24 L8.3161609,24 C1.59209598,24 0,22.407904 0,15.6838391 L0,8.3161609 C0,1.59209598 1.59209598,0 8.3161609,0" id="path-17"></path>
        <path d="M8.3161609,0 L15.6838391,0 C22.407904,0 24,1.59209598 24,8.3161609 L24,15.6838391 C24,22.407904 22.407904,24 15.6838391,24 L8.3161609,24 C1.59209598,24 0,22.407904 0,15.6838391 L0,8.3161609 C0,1.59209598 1.59209598,0 8.3161609,0" id="path-19"></path>
        <path d="M8.3161609,0 L15.6838391,0 C22.407904,0 24,1.59209598 24,8.3161609 L24,15.6838391 C24,22.407904 22.407904,24 15.6838391,24 L8.3161609,24 C1.59209598,24 0,22.407904 0,15.6838391 L0,8.3161609 C0,1.59209598 1.59209598,0 8.3161609,0" id="path-21"></path>
        <path d="M8.3161609,0 L15.6838391,0 C22.407904,0 24,1.59209598 24,8.3161609 L24,15.6838391 C24,22.407904 22.407904,24 15.6838391,24 L8.3161609,24 C1.59209598,24 0,22.407904 0,15.6838391 L0,8.3161609 C0,1.59209598 1.59209598,0 8.3161609,0" id="path-23"></path>
        <path d="M8.3161609,0 L15.6838391,0 C22.407904,0 24,1.59209598 24,8.3161609 L24,15.6838391 C24,22.407904 22.407904,24 15.6838391,24 L8.3161609,24 C1.59209598,24 0,22.407904 0,15.6838391 L0,8.3161609 C0,1.59209598 1.59209598,0 8.3161609,0" id="path-25"></path>
        <path d="M8.3161609,0 L15.6838391,0 C22.407904,0 24,1.59209598 24,8.3161609 L24,15.6838391 C24,22.407904 22.407904,24 15.6838391,24 L8.3161609,24 C1.59209598,24 0,22.407904 0,15.6838391 L0,8.3161609 C0,1.59209598 1.59209598,0 8.3161609,0" id="path-27"></path>
        <path d="M8.3161609,0 L15.6838391,0 C22.407904,0 24,1.59209598 24,8.3161609 L24,15.6838391 C24,22.407904 22.407904,24 15.6838391,24 L8.3161609,24 C1.59209598,24 0,22.407904 0,15.6838391 L0,8.3161609 C0,1.59209598 1.59209598,0 8.3161609,0" id="path-29"></path>
    </defs>
    <g id="Page-1" stroke="none" stroke-width="1" fill="none" fill-rule="evenodd">
        <g id="soc-icons-6">
            <g id="z" transform="translate(168.000000, 0.000000)">
                <g id="Rectangle-Clipped">
                    <g>
                        <mask id="mask-2" fill="white">
                            <use xlink:href="#path-1"></use>
                        </mask>
                        <g id="path-1"></g>
                        <rect id="Rectangle" fill="#F00F00" fill-rule="nonzero" mask="url(#mask-2)" x="0" y="0" width="24" height="24"></rect>
                    </g>
                </g>
                <g id="Group-Clipped">
                    <g>
                        <mask id="mask-4" fill="white">
                            <use xlink:href="#path-3"></use>
                        </mask>
                        <g id="path-3"></g>
                        <g id="Group" mask="url(#mask-4)">
                            <g transform="translate(7.000000, 3.000000)">
                                <g>
                                    <g transform="translate(0.200000, 0.600000)" fill-rule="nonzero">
                                        <polygon id="Path" fill="#CDCDCD" points="9.12 6.6 2.16 12.6 0.36 10.56 7.32 4.56"></polygon>
                                        <path d="M0.48,0.96 L9.12,3.96 L9.12,6.72 L0.48,3.72 L0.48,0.96 Z M0.48,10.56 L9.12,13.56 L9.12,16.32 L0.48,13.32 L0.48,10.56 Z" id="Shape" fill="#FFFFFF"></path>
                                    </g>
                                </g>
                            </g>
                        </g>
                    </g>
                </g>
            </g>
            <g id="tg-logo-icon" transform="translate(192.000000, 0.000000)">
                <g id="Rectangle-Clipped">
                    <mask id="mask-6" fill="white">
                        <use xlink:href="#path-5"></use>
                    </mask>
                    <g id="path-1"></g>
                    <rect id="Rectangle" fill="#33A6DD" mask="url(#mask-6)" x="0" y="0" width="24" height="24"></rect>
                </g>
                <g id="Group-2" transform="translate(4.573169, 6.920491)" fill="#FFFFFF" fill-rule="nonzero">
                    <path d="M13,0.389815455 L10.9439354,10.5420857 C10.9439354,10.5420857 10.6564173,11.2461662 9.86563019,10.9082181 L5.125,7.348 L5.13531466,7.26122376 C5.13531466,7.26122376 9.61916062,3.31397097 10.4786063,2.55159625 L10.6132671,2.43148159 C10.8289282,2.23436723 10.7570711,2.19217877 10.7570711,2.19217877 C10.7714605,1.95278788 10.3688273,2.19217877 10.3688273,2.19217877 L10.3688273,2.19217877 L3.39563689,6.52904697 L3.39563689,6.52904697 L0.491299531,5.57150981 C0.491299531,5.57150981 0.0455880423,5.41667199 0.00241985935,5.07872391 C-0.0406583898,4.74077583 0.505688925,4.55775365 0.505688925,4.55775365 L12.0510194,0.122240199 C12.0510194,0.122240199 13,-0.286080698 13,0.389815455 Z" id="Path-2"></path>
                </g>
            </g>
            <g id="fb-copy_1_" transform="translate(48.000000, 0.000000)">
                <g id="Rectangle-2672_1_-Clipped">
                    <g>
                        <mask id="mask-8" fill="white">
                            <use xlink:href="#path-7"></use>
                        </mask>
                        <g id="path-5"></g>
                        <rect id="Rectangle-2672_1_" fill="#39579A" fill-rule="nonzero" mask="url(#mask-8)" x="0" y="0" width="24" height="24"></rect>
                    </g>
                </g>
                <g id="f_1_-Clipped">
                    <g>
                        <mask id="mask-10" fill="white">
                            <use xlink:href="#path-9"></use>
                        </mask>
                        <g id="path-7"></g>
                        <path d="M13.2,12.72 L15.6,12.72 L15.96,9.84 L13.2,9.84 L13.2,8.04 C13.2,7.2 13.44,6.6 14.52,6.6 L15.96,6.6 L15.96,4.08 C15.72,4.08 14.88,3.96 13.8,3.96 C11.76,3.96 10.32,5.28 10.32,7.68 L10.32,9.72 L7.92,9.72 L7.92,12.6 L10.32,12.6 L10.32,19.92 L13.2,19.92 L13.2,12.72 Z" id="f_1_" fill="#FFFFFF" fill-rule="nonzero" mask="url(#mask-10)"></path>
                    </g>
                </g>
            </g>
            <g id="VK_Blue_Logo-2" fill-rule="nonzero">
                <path d="M8.31616091,0 L15.6838391,0 C22.4079041,0 24,1.59209598 24,8.31616091 L24,15.6838391 C24,22.4079041 22.4079041,24 15.6838391,24 L8.31616091,24 C1.59209598,24 0,22.4079041 0,15.6838391 L0,8.31616091 C0,1.59209598 1.59209598,0 8.31616091,0" id="Path" fill="#4680C2"></path>
                <path d="M19.6195804,8.34125874 C19.7370629,7.97202797 19.6195804,7.7034965 19.0993007,7.7034965 L17.3706294,7.7034965 C16.9342657,7.7034965 16.7328671,7.93846154 16.6153846,8.19020979 C16.6153846,8.19020979 15.7258741,10.3384615 14.4839161,11.7314685 C14.0811189,12.1342657 13.8965035,12.2685315 13.6783217,12.2685315 C13.5608392,12.2685315 13.4097902,12.1342657 13.4097902,11.765035 L13.4097902,8.32447552 C13.4097902,7.88811189 13.2755245,7.68671329 12.9062937,7.68671329 L10.1874126,7.68671329 C9.91888112,7.68671329 9.75104895,7.88811189 9.75104895,8.08951049 C9.75104895,8.50909091 10.372028,8.60979021 10.4391608,9.78461538 L10.4391608,12.3356643 C10.4391608,12.8895105 10.3384615,12.9902098 10.1202797,12.9902098 C9.53286713,12.9902098 8.10629371,10.8251748 7.25034965,8.35804196 C7.08251748,7.87132867 6.91468531,7.68671329 6.47832168,7.68671329 L4.73286713,7.68671329 C4.22937063,7.68671329 4.14545455,7.92167832 4.14545455,8.17342657 C4.14545455,8.62657343 4.73286713,10.9090909 6.88111888,13.9300699 C8.30769231,15.9944056 10.3384615,17.1020979 12.1678322,17.1020979 C13.2755245,17.1020979 13.4097902,16.8503497 13.4097902,16.4307692 L13.4097902,14.8699301 C13.4097902,14.3664336 13.5104895,14.2825175 13.8629371,14.2825175 C14.1146853,14.2825175 14.5678322,14.4167832 15.5916084,15.406993 C16.7664336,16.5818182 16.9678322,17.1188811 17.6223776,17.1188811 L19.351049,17.1188811 C19.8545455,17.1188811 20.0895105,16.8671329 19.9552448,16.3804196 C19.8041958,15.8937063 19.2335664,15.1888112 18.4951049,14.3496503 C18.0923077,13.8797203 17.4881119,13.3594406 17.3034965,13.1076923 C17.0517483,12.772028 17.1188811,12.6377622 17.3034965,12.3356643 C17.2867133,12.3356643 19.4013986,9.34825175 19.6195804,8.34125874" id="Path" fill="#FFFFFF"></path>
            </g>
            <g id="g_x2B_-copy_1_" transform="translate(120.000000, 0.000000)">
                <g id="Rectangle-2676_1_-Clipped">
                    <g>
                        <mask id="mask-12" fill="white">
                            <use xlink:href="#path-11"></use>
                        </mask>
                        <g id="path-9"></g>
                        <rect id="Rectangle-2676_1_" fill="#DC4E41" fill-rule="nonzero" mask="url(#mask-12)" x="0" y="0" width="24" height="24"></rect>
                    </g>
                </g>
                <g id="Combined-Shape_2_-Clipped">
                    <g>
                        <mask id="mask-14" fill="white">
                            <use xlink:href="#path-13"></use>
                        </mask>
                        <g id="path-11"></g>
                        <path d="M8.76,11.16 L8.76,13.08 L12,13.08 C11.88,13.92 11.04,15.48 8.88,15.48 C6.96,15.48 5.4,13.92 5.4,12 C5.4,10.08 6.96,8.52 8.88,8.52 C9.96,8.52 10.68,9 11.16,9.36 L12.72,7.92 C11.52,6.96 10.32,6.36 8.76,6.36 C5.64,6.36 3.12,8.88 3.12,12 C3.12,15.12 5.64,17.64 8.76,17.64 C12,17.64 14.16,15.36 14.16,12.12 C14.16,11.76 14.16,11.52 14.04,11.16 L8.76,11.16 Z M20.76,11.16 L19.2,11.16 L19.2,9.6 L17.64,9.6 L17.64,11.16 L16.08,11.16 L16.08,12.72 L17.64,12.72 L17.64,14.4 L19.2,14.4 L19.2,12.84 L20.76,12.84 L20.76,11.16 Z" id="Combined-Shape_2_" fill="#FFFFFF" fill-rule="nonzero" mask="url(#mask-14)"></path>
                    </g>
                </g>
            </g>
            <g id="ok-copy_1_" transform="translate(24.000000, 0.000000)">
                <g id="Rectangle-2670_1_-Clipped">
                    <g>
                        <mask id="mask-16" fill="white">
                            <use xlink:href="#path-15"></use>
                        </mask>
                        <g id="path-13"></g>
                        <rect id="Rectangle-2670_1_" fill="#E7792B" fill-rule="nonzero" mask="url(#mask-16)" x="0" y="0" width="24" height="24"></rect>
                    </g>
                </g>
                <g id="Combined-Shape_3_-Clipped">
                    <g>
                        <mask id="mask-18" fill="white">
                            <use xlink:href="#path-17"></use>
                        </mask>
                        <g id="path-15"></g>
                        <path d="M12,6.36 C12.96,6.36 13.8,7.08 13.8,8.04 C13.8,9 12.96,9.72 12,9.72 C11.04,9.72 10.2,9 10.2,8.04 C10.2,7.2 11.04,6.36 12,6.36 Z M12,12.24 C14.4,12.24 16.32,10.44 16.32,8.16 C16.32,5.88 14.4,4.08 12,4.08 C9.6,4.08 7.68,5.88 7.68,8.16 C7.68,10.44 9.6,12.24 12,12.24 Z M13.68,15.6 C14.52,15.36 15.36,15.12 16.2,14.64 C16.8,14.28 16.92,13.56 16.56,12.96 C16.2,12.36 15.36,12.24 14.88,12.6 C13.08,13.68 10.92,13.68 9.12,12.6 C8.52,12.24 7.8,12.36 7.44,12.96 C7.08,13.56 7.2,14.28 7.8,14.64 C8.52,15.12 9.36,15.48 10.32,15.6 L7.92,17.88 C7.44,18.36 7.44,19.08 7.92,19.56 C8.16,19.8 8.52,19.92 8.76,19.92 C9.12,19.92 9.36,19.8 9.6,19.56 L12,17.28 L14.4,19.56 C14.88,20.04 15.72,20.04 16.2,19.56 C16.68,19.08 16.68,18.36 16.2,17.88 L13.68,15.6 Z" id="Combined-Shape_3_" fill="#FFFFFF" fill-rule="nonzero" mask="url(#mask-18)"></path>
                    </g>
                </g>
            </g>
            <g id="mail-copy_1_" transform="translate(144.000000, 0.000000)">
                <g id="Rectangle-2673_1_-Clipped">
                    <g>
                        <mask id="mask-20" fill="white">
                            <use xlink:href="#path-19"></use>
                        </mask>
                        <g id="path-17"></g>
                        <rect id="Rectangle-2673_1_" fill="#005FF9" fill-rule="nonzero" mask="url(#mask-20)" x="0" y="0" width="24" height="24"></rect>
                    </g>
                </g>
                <g id="path24-2_1_-Clipped">
                    <g>
                        <mask id="mask-22" fill="white">
                            <use xlink:href="#path-21"></use>
                        </mask>
                        <g id="path-19"></g>
                        <path d="M14.4742222,11.824077 C14.3618055,10.2050403 13.2376379,9.27987645 11.8886368,9.27987645 C10.2023855,9.27987645 9.30305144,10.5519767 9.30305144,12.0553679 C9.30305144,13.6744046 10.427219,14.7152139 11.7762201,14.7152139 C13.3500547,14.7152139 14.3618055,13.5587591 14.4742222,12.0553679 L14.4742222,11.824077 Z M11.7762201,7.89213073 C12.9003876,7.89213073 13.9121384,8.35471264 14.586639,9.16423098 C14.586639,8.81729455 14.8114725,8.47035811 15.1487228,8.47035811 L15.2611395,8.47035811 C15.8232233,8.47035811 15.9356401,8.93294002 15.9356401,9.16423098 L15.9356401,14.9465048 C15.9356401,15.2934413 16.2728903,15.5247322 16.4977238,15.2934413 C17.3970579,14.3682775 18.4088087,10.4363312 15.9356401,8.12342168 C13.5748882,5.92615761 10.427219,6.27309405 8.74096766,7.5451943 C7.05471632,8.81729455 5.93054876,11.592786 6.94229956,14.252632 C8.17888388,17.1437689 11.5513866,17.9532872 13.5748882,17.1437689 C14.586639,16.681187 15.036306,18.1845782 14.0245552,18.6471601 C12.4507206,19.341033 7.84163361,19.341033 5.818132,15.5247322 C4.46913093,12.8648862 4.46913093,8.35471264 8.29130064,6.04180309 C11.2141363,4.30712093 15.036306,4.76970284 17.2846411,7.19825786 C19.645393,9.85810384 19.5329762,14.7152139 17.1722244,16.5655415 C16.1604736,17.3750599 14.586639,16.5655415 14.586639,15.2934413 L14.586639,14.8308594 C13.7997217,15.6403777 12.9003876,15.9873141 11.7762201,15.9873141 C9.64030171,15.9873141 7.84163361,14.021341 7.84163361,11.824077 C7.72921686,9.85810384 9.64030171,7.89213073 11.7762201,7.89213073 Z" id="path24-2_1_" fill="#FFFFFF" fill-rule="nonzero" mask="url(#mask-22)"></path>
                    </g>
                </g>
            </g>
            <g id="twitter-copy_1_" transform="translate(96.000000, 0.000000)">
                <g id="Rectangle-2671_1_-Clipped">
                    <g>
                        <mask id="mask-24" fill="white">
                            <use xlink:href="#path-23"></use>
                        </mask>
                        <g id="path-21"></g>
                        <rect id="Rectangle-2671_1_" fill="#50ABF1" fill-rule="nonzero" mask="url(#mask-24)" x="0" y="0" width="24" height="24"></rect>
                    </g>
                </g>
                <g id="Fill-1-Copy_1_-Clipped">
                    <g>
                        <mask id="mask-26" fill="white">
                            <use xlink:href="#path-25"></use>
                        </mask>
                        <g id="path-23"></g>
                        <path d="M9,19.44 C7.2,19.44 5.4,18.84 3.96,18 C4.2,18 4.44,18 4.68,18 C6.24,18 7.56,17.52 8.76,16.56 C7.32,16.56 6.12,15.6 5.76,14.28 C6,14.28 6.12,14.28 6.36,14.28 C6.6,14.28 6.96,14.28 7.2,14.16 C5.76,13.8 4.56,12.48 4.56,10.92 C4.56,10.92 4.56,10.92 4.56,10.92 C5.04,11.16 5.52,11.28 6,11.28 C5.28,10.8 4.68,9.84 4.68,8.64 C4.68,8.04 4.8,7.44 5.16,6.96 C6.72,9 9.12,10.2 11.88,10.44 C11.88,10.2 11.76,9.96 11.76,9.72 C11.76,7.92 13.2,6.48 15,6.48 C15.96,6.48 16.8,6.84 17.4,7.56 C18.12,7.44 18.84,7.08 19.44,6.72 C19.2,7.44 18.72,8.04 18,8.4 C18.72,8.28 19.32,8.16 19.92,7.92 C19.44,8.52 18.96,9.12 18.24,9.6 C18.24,9.72 18.24,9.84 18.24,10.08 C18.36,14.4 15,19.44 9,19.44" id="Fill-1-Copy_1_" fill="#FFFFFF" fill-rule="nonzero" mask="url(#mask-26)"></path>
                    </g>
                </g>
            </g>
            <g id="instagram-copy_1_" transform="translate(72.000000, 0.000000)">
                <g id="Rectangle-2669_3_-Clipped">
                    <g>
                        <mask id="mask-28" fill="white">
                            <use xlink:href="#path-27"></use>
                        </mask>
                        <g id="path-25"></g>
                        <rect id="Rectangle-2669_3_" fill="#D93174" fill-rule="nonzero" mask="url(#mask-28)" x="0" y="0" width="24" height="24"></rect>
                    </g>
                </g>
                <g id="svg-instagram-Clipped">
                    <g>
                        <mask id="mask-30" fill="white">
                            <use xlink:href="#path-29"></use>
                        </mask>
                        <g id="path-27"></g>
                        <g id="svg-instagram" mask="url(#mask-30)">
                            <g transform="translate(4.000000, 4.000000)" id="Group">
                                <g>
                                    <g fill="#FFFFFF" fill-rule="nonzero">
                                        <path d="M14.5264666,11.5007978 C14.5264666,13.1938536 13.1540501,14.5664711 11.4609943,14.5664711 L4.53900567,14.5664711 C2.84594992,14.5664711 1.47333241,13.1938536 1.47333241,11.5007978 L1.47333241,4.57880915 C1.47333241,2.88575342 2.84594992,1.51333693 4.53900567,1.51333693 L11.4609943,1.51333693 C13.1540501,1.51333693 14.5264666,2.88575342 14.5264666,4.57880915 L14.5264666,11.5007978 Z M11.3817894,9.9475983e-14 L4.61800957,9.9475983e-14 C2.06757045,9.9475983e-14 7.46069873e-14,2.06777148 7.46069873e-14,4.6182106 L7.46069873e-14,11.3817894 C7.46069873e-14,13.9324295 2.06757045,16 4.61800957,16 L9.92013558,16 L11.3817894,16 C13.9322285,16 16,13.9324295 16,11.3817894 L16,4.6182106 C16,2.06777148 13.9322285,9.9475983e-14 11.3817894,9.9475983e-14 Z" id="Fill-1"></path>
                                        <path d="M8,10.5929979 C6.56801123,10.5929979 5.40700208,9.43218245 5.40700208,8 C5.40700208,6.56801124 6.56801123,5.40700209 8,5.40700209 C9.43198877,5.40700209 10.5929979,6.56801124 10.5929979,8 C10.5929979,9.43218245 9.43198877,10.5929979 8,10.5929979 M8,4 C5.79090601,4 4,5.79090601 4,8 C4,10.209094 5.79090601,12 8,12 C10.209094,12 12,10.209094 12,8 C12,5.79090601 10.209094,4 8,4" id="Fill-4"></path>
                                        <path d="M12,3 C11.447724,3 11,3.44772395 11,4 C11,4.55227602 11.447724,5 12,5 C12.552276,5 13,4.55227602 13,4 C13,3.44772395 12.552276,3 12,3" id="Fill-6"></path>
                                    </g>
                                </g>
                            </g>
                        </g>
                    </g>
                </g>
            </g>
        </g>
    </g>
</svg>