<svg width="17px" height="16px" viewBox="0 0 17 16" version="1.1" xmlns="http://www.w3.org/2000/svg" xmlns:xlink="http://www.w3.org/1999/xlink"><g stroke="none" stroke-width="1" fill="none" fill-rule="evenodd"><g transform="translate(-209.000000, -132.000000)"><g transform="translate(40.000000, 130.000000)"><g transform="translate(153.000000, 0.000000)"><g><g transform="translate(16.000000, 2.000000)"><path d="M0,1.0002 L0,11.0002 C6.76353751e-17,11.5524847 0.44771525,12.0002 1,12.0002 L3,12.0002 L3,14.8718398 C3,15.4241246 3.44771525,15.8718398 4,15.8718398 C4.23397588,15.8718398 4.46054436,15.789796 4.64027244,15.6399877 L9.007,12.0002 L16,12.0002 C16.5522847,12.0002 17,11.5524847 17,11.0002 L17,1.0002 C17,0.44791525 16.5522847,0.0002 16,0.0002 L1,0.0002 C0.44771525,0.0002 -6.76353751e-17,0.44791525 0,1.0002 Z" fill="#3B393F" class="svg-recenses"></path><path d="M4,4 L13,4" stroke="#FFFFFF" stroke-width="2" stroke-linecap="round" stroke-linejoin="round"></path><path d="M4,8 L11,8" stroke="#FFFFFF" stroke-width="2" stroke-linecap="round" stroke-linejoin="round"></path></g></g></g></g></g></g></svg>