<svg xmlns="http://www.w3.org/2000/svg" fill="none" viewBox="0 0 34 24" height="24" width="34"><path fill="url(#paint0_linear)" d="M18.5928 23.5666C21.8014 21.6491 26.0334 19.1094 27.5336 18.2184C29.0338 17.3274 30 16.593 30 14.9529C30 13.3129 29.9903 3.19137 29.9903 1.77455C29.9903 0.357725 28.6991 -0.564133 27.0742 0.391706C25.6601 1.22349 17.0006 6.41654 17.0006 6.41654C17.0006 6.41654 8.51852 1.32914 6.92751 0.391706C5.3365 -0.545733 4.01119 0.330413 4.01119 1.78616C4.01119 3.24191 4.00551 13.9215 4 14.9501C4 16.6151 5.02087 17.3358 6.46614 18.2184C7.91141 19.101 12.1582 21.6577 15.4129 23.5666C15.6656 23.7148 16.202 24 17.0018 24C17.8016 24 18.3678 23.701 18.5928 23.5666Z" clip-rule="evenodd" fill-rule="evenodd"></path><defs><linearGradient gradientUnits="userSpaceOnUse" y2="9.75099" x2="4" y1="9.74932" x1="30" id="paint0_linear"><stop stop-color="#3E99ED"></stop><stop stop-color="#59C7FF" offset="1"></stop></linearGradient></defs></svg>