<?xml version="1.0" encoding="UTF-8"?>
<svg width="11px" height="16px" viewBox="0 0 11 16" version="1.1" xmlns="http://www.w3.org/2000/svg" xmlns:xlink="http://www.w3.org/1999/xlink">
    <!-- Generator: Sketch 44 (41411) - http://www.bohemiancoding.com/sketch -->
    <title>alfa@2x</title>
    <desc>Created with Sketch.</desc>
    <defs></defs>
    <g id="Page-1" stroke="none" stroke-width="1" fill="none" fill-rule="evenodd">
        <g id="Иконки" transform="translate(-1443.000000, -926.000000)" fill="#EF3024">
            <g id="payments2017" transform="translate(1208.000000, 925.000000)">
                <path d="M240.491676,3.60954045 L238.973122,7.99916028 L242.034234,7.99916028 L240.510518,3.60954045 L240.491676,3.60954045 L240.491676,3.60954045 Z M235.17009,15 C235.076012,15 235,15.0680549 235,15.1523616 L235,16.8477513 C235,16.9322837 235.076012,17 235.17009,17 L245.831329,17 C245.924634,17 246,16.9322837 246,16.8477513 L246,15.1523616 C246,15.0680549 245.924634,15 245.831329,15 L235.17009,15 L235.17009,15 Z M240.50071,1 C241.667468,1 242.034234,1.80473257 242.340732,2.61021072 C242.470817,2.95081788 245.501343,10.9417278 245.591809,11.181557 C245.617232,11.2475411 245.600584,11.3581359 245.493471,11.3974033 C245.3861,11.4366706 243.81115,12.0264268 243.724427,12.0578655 C243.637317,12.0894285 243.539238,12.0428296 243.507233,11.9594486 C243.47497,11.8765646 242.822225,10.1348827 242.748536,9.93966426 L238.258432,9.93966426 C238.184615,10.1348827 237.52503,11.8797955 237.494703,11.9594486 C237.464505,12.0392259 237.370039,12.0931565 237.278025,12.0578655 C237.185624,12.0224503 235.603834,11.4323214 235.510271,11.3974033 C235.419806,11.3642248 235.378251,11.2651865 235.410385,11.181557 C235.521886,10.8815841 238.506083,3.01916299 238.65901,2.61021072 C238.954151,1.81753174 239.334467,1 240.50071,1 L240.50071,1 L240.50071,1 Z" id="alfa"></path>
            </g>
        </g>
    </g>
</svg>