<?xml version="1.0" encoding="UTF-8"?>
<svg width="13px" height="16px" viewBox="0 0 13 16" version="1.1" xmlns="http://www.w3.org/2000/svg" xmlns:xlink="http://www.w3.org/1999/xlink">
    <!-- Generator: Sketch 44 (41411) - http://www.bohemiancoding.com/sketch -->
    <title>apple@2x</title>
    <desc>Created with Sketch.</desc>
    <defs></defs>
    <g id="Page-1" stroke="none" stroke-width="1" fill="none" fill-rule="evenodd">
        <g id="Иконки" transform="translate(-1635.000000, -925.000000)" fill-rule="nonzero" fill="#000000">
            <g id="payments2017" transform="translate(1208.000000, 925.000000)">
                <path d="M437.856481,8.21820307 C437.881309,10.5603495 439.975172,11.3383064 440,11.3465825 C439.983448,11.4045155 439.668955,12.4555847 438.899274,13.5480347 C438.237183,14.4915142 437.541988,15.4267175 436.457814,15.451546 C435.390192,15.4680983 435.042595,14.8391119 433.826003,14.8391119 C432.601134,14.8391119 432.220432,15.4349937 431.210744,15.4680983 C430.159674,15.5094789 429.356889,14.4501335 428.686522,13.5149301 C427.304407,11.5865904 426.261614,8.07750875 427.668557,5.71053386 C428.363753,4.53532254 429.613449,3.79874643 430.970736,3.77391803 C432.005253,3.75736576 432.973561,4.44428505 433.602547,4.44428505 C434.231533,4.44428505 435.415021,3.61667144 436.656441,3.73253735 C437.177838,3.75736576 438.634438,3.93944075 439.577917,5.26362251 C439.503432,5.32155546 437.839928,6.25675884 437.856481,8.21820307 M435.84538,2.46628853 C436.399881,1.81247379 436.780583,0.902098825 436.672993,0 C435.870208,0.0331045433 434.893624,0.521396573 434.322571,1.17521132 C433.80945,1.75454084 433.354263,2.68146807 433.478405,3.56701463 C434.372227,3.63322372 435.290879,3.12010328 435.84538,2.46628853" id="apple"></path>
            </g>
        </g>
    </g>
</svg>