<?xml version="1.0" encoding="UTF-8" standalone="no"?>
<svg width="58px" height="25px" viewBox="0 0 58 25" version="1.1" xmlns="http://www.w3.org/2000/svg" xmlns:xlink="http://www.w3.org/1999/xlink" xmlns:sketch="http://www.bohemiancoding.com/sketch/ns">
	<g id="00" stroke="none" stroke-width="1" fill="none" fill-rule="evenodd" sketch:type="MSPage">
		<g id="0_00_UI_Buttons-Copy" sketch:type="MSArtboardGroup" transform="translate(-596.000000, -3110.000000)">
			<g id="ios-+-andr-+-win" sketch:type="MSLayerGroup" transform="translate(596.000000, 3110.000000)">
				<path d="M21.4095456,16.9895942 C20.824539,18.1949041 20.5442409,18.7328981 19.791308,19.7983373 C18.7399797,21.2857326 17.2585243,23.1380419 15.422698,23.1536699 C13.7909927,23.1681258 13.372229,22.1667614 11.1584632,22.1780917 C8.94427656,22.189422 8.48216347,23.1716421 6.85045816,23.1575769 C5.01463186,23.1419489 3.61061614,21.4693617 2.55928783,19.9819664 C-0.380475291,15.822573 -0.687288078,10.9411659 1.12539048,8.34652643 C2.41408836,6.50242191 4.44603916,5.42291751 6.35720084,5.42291751 C8.30329456,5.42291751 9.5267579,6.41490509 11.1353155,6.41490509 C12.6958941,6.41490509 13.6470558,5.42135471 15.8970162,5.42135471 C17.5969022,5.42135471 19.3986382,6.28167635 20.6831274,7.77024377 C16.4761306,9.91284317 17.1591994,15.4967291 21.4095456,16.9895942 Z M14.1899756,3.75970715 C15.0068804,2.78451968 15.6280816,1.40769249 15.4029172,0 C14.0679238,0.0855633239 12.5060826,0.875168244 11.5940616,1.90466303 C10.7662142,2.83882699 10.0827246,4.22503098 10.349134,5.57177425 C11.8066,5.61357917 13.3145701,4.80443924 14.1899756,3.75970715 Z" id="ios" fill="#969696" sketch:type="MSShapeGroup"></path>
				<path d="M55.5246006,7.72049029 C54.6569486,7.72049029 53.9533503,8.40208032 53.9533503,9.24290377 L53.9533503,15.1923066 C53.9533503,16.0331301 54.6569486,16.7148567 55.5246006,16.7148567 C56.3925389,16.7148567 57.0959941,16.0331301 57.0959941,15.1923066 L57.0959941,9.24290377 C57.0959941,8.40208032 56.3925389,7.72049029 55.5246006,7.72049029 L55.5246006,7.72049029 Z M36.5713935,7.72049029 C35.7035983,7.72049029 35,8.40208032 35,9.24290377 L35,15.1923066 C35,16.0331301 35.7035983,16.7148567 36.5713935,16.7148567 C37.4391886,16.7148567 38.1426438,16.0331301 38.1426438,15.1923066 L38.1426438,9.24290377 C38.1426438,8.40208032 37.4391886,7.72049029 36.5713935,7.72049029 Z M39.0883143,7.76664886 L39.0883143,18.636173 C39.0883143,19.2818468 39.6368777,19.8051594 40.3137064,19.8051594 L41.7136022,19.8051594 L41.7136022,23.1151932 C41.7136022,23.9560167 42.4172006,24.6376067 43.2849957,24.6376067 C44.1527909,24.6376067 44.8563892,23.9560167 44.8563892,23.1151932 L44.8563892,19.8051594 L47.3020197,19.8051594 L47.3020197,23.1151932 C47.3020197,23.9560167 48.0056181,24.6376067 48.8732701,24.6376067 C49.7412084,24.6376067 50.4448067,23.9560167 50.4448067,23.1151932 L50.4448067,19.8051594 L51.8445594,19.8051594 C52.5215312,19.8051594 53.0700946,19.2818468 53.0700946,18.636173 L53.0700946,7.76664886 L39.0883143,7.76664886 Z M49.3621385,2.13421064 L50.6538105,0.345634282 C50.7303975,0.239387629 50.7113581,0.0998194043 50.6111508,0.0339956427 C50.5109435,-0.0318281189 50.3675039,0.000810634257 50.2909169,0.107057287 L48.9492845,1.96500807 C48.0651698,1.63274829 47.0827089,1.44756775 46.0479971,1.44756775 C45.0132852,1.44756775 44.0309674,1.63274829 43.1468528,1.96500807 L41.8052203,0.107057287 C41.7284902,0.000810634257 41.5850506,-0.0318281189 41.4848433,0.0339956427 C41.384636,0.0998194043 41.3655966,0.239387629 41.4423268,0.345634282 L42.7338556,2.13421064 C40.6804651,3.04550102 39.2403431,4.7769937 39.0571069,6.79800168 L53.0388872,6.79800168 C52.855651,4.7769937 51.4155291,3.04550102 49.3621385,2.13421064 Z M43.0986102,4.95302447 C42.6714408,4.95302447 42.3250099,4.62267658 42.3250099,4.21503358 C42.3250099,3.80752714 42.6714408,3.47704269 43.0986102,3.47704269 C43.5259227,3.47704269 43.8722104,3.80752714 43.8722104,4.21503358 C43.8722104,4.62267658 43.5259227,4.95302447 43.0986102,4.95302447 L43.0986102,4.95302447 Z M49.0940124,4.95302447 C48.666843,4.95302447 48.3205553,4.62267658 48.3205553,4.21503358 C48.3205553,3.80752714 48.666843,3.47704269 49.0940124,3.47704269 C49.5214681,3.47704269 49.8677559,3.80752714 49.8677559,4.21503358 C49.8677559,4.62267658 49.5214681,4.95302447 49.0940124,4.95302447 L49.0940124,4.95302447 Z" id="andr" fill="#A4CA39" sketch:type="MSShapeGroup"></path>
			</g>
		</g>
	</g>
</svg>