<?xml version="1.0" encoding="UTF-8"?>
<svg width="25px" height="15px" viewBox="0 0 25 15" version="1.1" xmlns="http://www.w3.org/2000/svg" xmlns:xlink="http://www.w3.org/1999/xlink">
    <!-- Generator: Sketch 44 (41411) - http://www.bohemiancoding.com/sketch -->
    <title>MasterCard_Logo@2x</title>
    <desc>Created with Sketch.</desc>
    <defs></defs>
    <g id="Page-1" stroke="none" stroke-width="1" fill="none" fill-rule="evenodd">
        <g id="Иконки" transform="translate(-1257.000000, -926.000000)">
            <g id="payments2017" transform="translate(1208.000000, 925.000000)">
                <g id="MasterCard_Logo" transform="translate(49.000000, 1.000000)">
                    <g id="layer1">
                        <g id="g10305">
                            <path d="M24.9187919,7.5 C24.9199664,11.6007821 21.5927852,14.9257542 17.4874161,14.9268436 C13.3819631,14.9278492 10.0533557,11.6045531 10.0522651,7.50377095 L10.0522651,7.5 C10.0511745,3.39930168 13.3783557,0.0741620112 17.483557,0.0730726257 C21.5890101,0.0719832402 24.9177013,3.39544693 24.9187919,7.49622905 L24.9187919,7.5 L24.9187919,7.5 Z" id="path2268" fill="#FF9900"></path>
                            <path d="M7.46652685,0.075 C3.38548658,0.100893855 0.0811241611,3.41740223 0.0811241611,7.5 C0.0811241611,11.5985196 3.41124161,14.9249162 7.51442953,14.9249162 C9.44018456,14.9249162 11.1955537,14.1918436 12.516443,12.9903352 C12.5163591,12.9903352 12.5161913,12.9901676 12.5158557,12.99 L12.5174497,12.99 C12.7879195,12.7437989 13.0401846,12.4781564 13.2720638,12.1949162 L11.7491611,12.1949162 C11.5458054,11.9495531 11.3609899,11.6938827 11.1949664,11.4300838 L13.8214765,11.4300838 C13.9812081,11.1747486 14.1258389,10.9096089 14.2541946,10.635 L10.7613255,10.635 C10.6422819,10.3800838 10.5389262,10.1193855 10.4506711,9.8549162 L14.5651846,9.8549162 C14.8131711,9.11480447 14.9477349,8.32298883 14.9477349,7.4999162 C14.9477349,6.95421788 14.8885067,6.42217877 14.7764262,5.9099162 L10.2324664,5.9099162 C10.2887584,5.64628492 10.3598154,5.38583799 10.444547,5.1299162 L14.5605705,5.1299162 C14.4685403,4.85756983 14.3616611,4.59217877 14.2401007,4.3349162 L10.760906,4.3349162 C10.8864094,4.06709497 11.0286074,3.80656425 11.1874161,3.555 L13.8119966,3.555 C13.6373322,3.27703911 13.4440436,3.01148045 13.2350671,2.7599162 L11.7717282,2.7599162 C11.9979866,2.49393855 12.2470638,2.24346369 12.5174497,2.0099162 C11.1964765,0.808240223 9.44060403,0.075 7.51442953,0.075 C7.49840604,0.075 7.48255034,0.0749162011 7.46652685,0.075 L7.46652685,0.075 Z" id="path1350" fill="#CC0000"></path>
                        </g>
                        <g id="g16480" transform="translate(0.503356, 5.530726)">
                            <g id="g13802" transform="translate(0.021472, 0.167087)" fill="#000066">
                                <path d="M9.45629195,3.93234637 L9.55528523,3.26027933 C9.5011745,3.26027933 9.4216443,3.28365922 9.35134228,3.28365922 C9.07583893,3.28365922 9.04144295,3.13659218 9.06308725,3.02916201 L9.33456376,1.67748603 L9.7533557,1.67748603 L9.83968121,0.914664804 L9.44496644,0.914664804 L9.52533557,0.452430168 L8.69966443,0.452430168 C8.68221477,0.469860335 8.23255034,3.05203911 8.23255034,3.36662011 C8.23255034,3.83212291 8.49412752,4.03927374 8.86308725,4.03600559 C9.15184564,4.03357542 9.37692953,3.95371508 9.45629195,3.93234637 L9.45629195,3.93234637 Z" id="path13804"></path>
                                <path d="M9.70687919,2.65122905 C9.70687919,3.76843575 10.4450503,4.03382682 11.0740772,4.03382682 C11.654698,4.03382682 11.9591443,3.89941341 11.9591443,3.89941341 L12.0985738,3.13684358 C12.0985738,3.13684358 11.6079698,3.33611732 11.2092282,3.33611732 C10.3593121,3.33611732 10.5083054,2.70310056 10.5083054,2.70310056 L12.1411074,2.70804469 C12.1411074,2.70804469 12.2450503,2.19594972 12.2450503,1.9872067 C12.2450503,1.46622905 11.960906,0.826675978 11.0919463,0.826675978 C10.2961409,0.826843575 9.70687919,1.68335196 9.70687919,2.65122905 L9.70687919,2.65122905 Z M11.0949664,1.53460894 C11.5416107,1.53460894 11.4592282,2.03606145 11.4592282,2.07670391 L10.5805369,2.07670391 C10.5805369,2.0247486 10.6635067,1.53460894 11.0949664,1.53460894 L11.0949664,1.53460894 Z" id="path13806"></path>
                                <path d="M16.1065436,3.93209497 L16.2482383,3.07030726 C16.2482383,3.07030726 15.8596477,3.26480447 15.5932886,3.26480447 C15.0317953,3.26480447 14.8065436,2.83659218 14.8065436,2.37645251 C14.8065436,1.44318436 15.2895973,0.929664804 15.827349,0.929664804 C16.2307047,0.929664804 16.5542785,1.15583799 16.5542785,1.15583799 L16.6834732,0.318435754 C16.6834732,0.318435754 16.3014262,0.0428212291 15.8901846,0.0412290503 C14.6531879,0.0363687151 13.9453859,0.896648045 13.9453859,2.38382682 C13.9453859,3.36955307 14.469547,4.04036313 15.4140101,4.04036313 C15.6810403,4.04036313 16.1065436,3.93209497 16.1065436,3.93209497 L16.1065436,3.93209497 Z" id="path13808"></path>
                                <path d="M5.10318792,0.838994413 C4.56048658,0.838994413 4.14454698,1.01321229 4.14454698,1.01321229 L4.02961409,1.69424581 C4.02961409,1.69424581 4.37298658,1.55488827 4.89211409,1.55488827 C5.18682886,1.55488827 5.40243289,1.58798883 5.40243289,1.82723464 C5.40243289,1.9725419 5.3760906,2.02617318 5.3760906,2.02617318 C5.3760906,2.02617318 5.14354027,2.00681564 5.03582215,2.00681564 C4.26317114,2.00681564 3.63238255,2.29860335 3.63238255,3.17832402 C3.63238255,3.87159218 4.10411074,4.03055866 4.39647651,4.03055866 C4.95494966,4.03055866 5.17600671,3.67835196 5.18875839,3.67734637 L5.18229866,3.96963687 L5.87919463,3.96963687 L6.19010067,1.7925419 C6.19010067,0.868659218 5.38338926,0.838994413 5.10318792,0.838994413 L5.10318792,0.838994413 Z M5.2238255,2.60681564 C5.23901007,2.73972067 5.18942953,3.36821229 4.71275168,3.36821229 C4.46694631,3.36821229 4.40310403,3.18050279 4.40310403,3.06972067 C4.40310403,2.85318436 4.52080537,2.59349162 5.10067114,2.59349162 C5.23573826,2.59349162 5.2010906,2.60321229 5.2238255,2.60681564 L5.2238255,2.60681564 Z" id="path13810"></path>
                                <path d="M6.93078859,4.01446927 C7.1090604,4.01446927 8.12810403,4.05980447 8.12810403,3.00938547 C8.12810403,2.02717877 7.18481544,2.22134078 7.18481544,1.82664804 C7.18481544,1.63039106 7.3385906,1.56854749 7.61971477,1.56854749 C7.73120805,1.56854749 8.16057047,1.60399441 8.16057047,1.60399441 L8.26031879,0.905949721 C8.26031879,0.90603352 7.98246644,0.843854749 7.53011745,0.843854749 C6.94463087,0.843854749 6.35033557,1.07731844 6.35033557,1.87608939 C6.35033557,2.78128492 7.34127517,2.69036313 7.34127517,3.07164804 C7.34127517,3.32614525 7.06442953,3.34709497 6.85100671,3.34709497 C6.4817953,3.34709497 6.14941275,3.22047486 6.14823826,3.22659218 L6.04261745,3.91751397 C6.06182886,3.92337989 6.26694631,4.01446927 6.93078859,4.01446927 L6.93078859,4.01446927 Z" id="path13812"></path>
                                <path d="M22.6348154,0.205726257 L22.4917785,1.27072626 C22.4917785,1.27072626 22.1937081,0.859692737 21.727349,0.859692737 C20.8499161,0.859692737 20.3977349,1.73312849 20.3977349,2.73645251 C20.3977349,3.38421788 20.7202181,4.01916201 21.3791946,4.01916201 C21.8532718,4.01916201 22.1161074,3.68891061 22.1161074,3.68891061 L22.0812919,3.97089385 L22.8512584,3.97089385 L23.4558725,0.21150838 L22.6348154,0.205726257 L22.6348154,0.205726257 Z M22.2948826,2.27564246 C22.2948826,2.69321229 22.0878356,3.25106145 21.6588926,3.25106145 C21.3739933,3.25106145 21.2404362,3.01215084 21.2404362,2.63731844 C21.2404362,2.02432961 21.5160235,1.62 21.8639262,1.62 C22.1486577,1.62 22.2948826,1.8152514 22.2948826,2.27564246 L22.2948826,2.27564246 Z" id="path13814"></path>
                                <polygon id="path13816" points="0.817869128 3.97399441 1.29966443 1.13572626 1.3704698 3.97399441 1.91568792 3.97399441 2.93288591 1.13572626 2.48229866 3.97399441 3.29253356 3.97399441 3.91644295 0.209581006 2.62936242 0.199776536 1.86375839 2.50458101 1.84278523 0.209581006 0.663255034 0.209581006 0.0303691275 3.97399441"></polygon>
                                <path d="M13.0118289,3.97935754 C13.242198,2.67083799 13.324245,1.63743017 13.996057,1.85145251 C14.0925336,1.34497207 14.3224832,0.90452514 14.4275168,0.690167598 C14.4275168,0.690167598 14.3942953,0.640810056 14.1866611,0.640810056 C13.8322148,0.640810056 13.3589765,1.35930168 13.3589765,1.35930168 L13.429698,0.915083799 L12.6926174,0.915083799 L12.1989933,3.97927374 L13.0118289,3.97927374 L13.0118289,3.97935754 Z" id="path13818"></path>
                                <g id="use14699" transform="translate(16.216451, 0.837989)">
                                    <path d="M1.54781879,0.00100558659 C1.00486577,0.00100558659 0.588926174,0.175223464 0.588926174,0.175223464 L0.474077181,0.856256983 C0.474077181,0.856256983 0.81761745,0.716899441 1.33649329,0.716899441 C1.63129195,0.716899441 1.84681208,0.75 1.84681208,0.98924581 C1.84681208,1.13455307 1.82055369,1.18818436 1.82055369,1.18818436 C1.82055369,1.18818436 1.58808725,1.16882682 1.48036913,1.16882682 C0.707634228,1.16882682 0.0769295302,1.46061453 0.0769295302,2.3403352 C0.0769295302,3.03360335 0.548573826,3.19256983 0.840939597,3.19256983 C1.39924497,3.19256983 1.6204698,2.84036313 1.63313758,2.83935754 L1.62659396,3.13164804 L2.32365772,3.13164804 L2.63447987,0.954553073 C2.63456376,0.0306703911 1.82785235,0.00100558659 1.54781879,0.00100558659 L1.54781879,0.00100558659 Z M1.66828859,1.76882682 C1.68338926,1.90173184 1.63380872,2.53022346 1.15721477,2.53022346 C0.911241611,2.53022346 0.847483221,2.34251397 0.847483221,2.23173184 C0.847483221,2.01519553 0.965100671,1.75550279 1.54505034,1.75550279 C1.68020134,1.75550279 1.64563758,1.76522346 1.66828859,1.76882682 L1.66828859,1.76882682 Z" id="path13810_1_"></path>
                                </g>
                                <path d="M19.6531879,3.97935754 C19.779698,3.01667598 20.0138423,1.6651676 20.6373322,1.85145251 C20.7337248,1.34497207 20.6407718,1.34631285 20.4332215,1.34631285 C20.0785235,1.34631285 20,1.35921788 20,1.35921788 L20.0708054,0.915 L19.3338087,0.915 L18.8401846,3.97927374 L19.6531879,3.97927374 L19.6531879,3.97935754 L19.6531879,3.97935754 Z" id="use14701"></path>
                            </g>
                            <g id="g10289" transform="translate(0.251678, 0.000000)" fill="#FFFFFF">
                                <path d="M9.43238255,3.85969274 L9.53145973,3.1877095 C9.47734899,3.1877095 9.3977349,3.21083799 9.32751678,3.21083799 C9.05201342,3.21083799 9.0216443,3.06452514 9.03917785,2.95634078 L9.26174497,1.58522346 L9.68045302,1.58522346 L9.78154362,0.841927374 L9.38674497,0.841927374 L9.46711409,0.379692737 L8.67567114,0.379692737 C8.65822148,0.397122905 8.20847315,2.97938547 8.20847315,3.29379888 C8.20847315,3.75930168 8.47013423,3.96662011 8.83909396,3.96326816 C9.12802013,3.96083799 9.35302013,3.88097765 9.43238255,3.85969274 L9.43238255,3.85969274 Z" id="path4157"></path>
                                <path d="M9.68313758,2.57849162 C9.68313758,3.69569832 10.4213926,3.96117318 11.0503356,3.96117318 C11.6308725,3.96117318 11.8863255,3.83153631 11.8863255,3.83153631 L12.025755,3.06905028 C12.025755,3.06905028 11.5841443,3.26337989 11.1853188,3.26337989 C10.3354866,3.26337989 10.4843121,2.63044693 10.4843121,2.63044693 L12.0927013,2.63044693 C12.0927013,2.63044693 12.1965604,2.11818436 12.1965604,1.90944134 C12.1965604,1.38854749 11.9369966,0.753854749 11.0680369,0.753854749 C10.2722315,0.754022346 9.68313758,1.61053073 9.68313758,2.57849162 L9.68313758,2.57849162 Z M11.071057,1.46187151 C11.5177013,1.46187151 11.4353188,1.96324022 11.4353188,2.00379888 L10.5566275,2.00379888 C10.5566275,1.95201117 10.6396812,1.46187151 11.071057,1.46187151 L11.071057,1.46187151 Z" id="path4155"></path>
                                <path d="M16.082802,3.85935754 L16.2244128,2.99748603 C16.2244128,2.99748603 15.8360738,3.19198324 15.569547,3.19198324 C15.0081376,3.19198324 14.7829698,2.76377095 14.7829698,2.30371508 C14.7829698,1.37044693 15.2660235,0.857011173 15.8037752,0.857011173 C16.207047,0.857011173 16.5307047,1.08318436 16.5307047,1.08318436 L16.6598993,0.245782123 C16.6598993,0.245782123 16.1799497,0.0517877095 15.7685403,0.0517877095 C14.8548658,0.0517877095 13.9660235,0.843519553 13.9660235,2.33044693 C13.9660235,3.31642458 14.4459732,3.9676257 15.3904362,3.9676257 C15.6574664,3.9677095 16.082802,3.85935754 16.082802,3.85935754 L16.082802,3.85935754 Z" id="path4151"></path>
                                <path d="M5.07944631,0.766173184 C4.53674497,0.766173184 4.12072148,0.940391061 4.12072148,0.940391061 L4.00587248,1.62142458 C4.00587248,1.62142458 4.34924497,1.48206704 4.86828859,1.48206704 C5.16300336,1.48206704 5.37860738,1.5151676 5.37860738,1.75441341 C5.37860738,1.89972067 5.35218121,1.95335196 5.35218121,1.95335196 C5.35218121,1.95335196 5.11971477,1.93391061 5.01208054,1.93391061 C4.32760067,1.93391061 3.60855705,2.22569832 3.60855705,3.10541899 C3.60855705,3.79860335 4.08028523,3.95765363 4.37265101,3.95765363 C4.93104027,3.95765363 5.17172819,3.59572626 5.18456376,3.59463687 L5.15847315,3.89673184 L5.85536913,3.89673184 L6.16627517,1.71955307 C6.16627517,0.795921788 5.35964765,0.766173184 5.07944631,0.766173184 L5.07944631,0.766173184 Z M5.24899329,2.53885475 C5.26409396,2.67184358 5.16552013,3.29522346 4.68901007,3.29522346 C4.4432047,3.29522346 4.37927852,3.10768156 4.37927852,2.99673184 C4.37927852,2.78036313 4.49697987,2.52058659 5.07692953,2.52058659 C5.21182886,2.52075419 5.22625839,2.5351676 5.24899329,2.53885475 L5.24899329,2.53885475 Z" id="path4149"></path>
                                <path d="M6.90696309,3.94173184 C7.0852349,3.94173184 8.10436242,3.98698324 8.10436242,2.93656425 C8.10436242,1.95452514 7.16098993,2.14851955 7.16098993,1.75399441 C7.16098993,1.55756983 7.3147651,1.49572626 7.59580537,1.49572626 C7.70738255,1.49572626 8.13666107,1.53117318 8.13666107,1.53117318 L8.23649329,0.833128492 C8.23649329,0.833212291 7.95864094,0.77103352 7.50629195,0.77103352 C6.92080537,0.77103352 6.32651007,1.00449721 6.32651007,1.80326816 C6.32651007,2.70837989 7.31744966,2.6175419 7.31744966,2.99882682 C7.31744966,3.25332402 7.04060403,3.27402235 6.8272651,3.27402235 C6.45805369,3.27402235 6.12558725,3.14748603 6.12441275,3.15351955 L6.01887584,3.84452514 C6.03800336,3.85039106 6.24303691,3.94173184 6.90696309,3.94173184 L6.90696309,3.94173184 Z" id="path4145"></path>
                                <path d="M22.6385906,0.139776536 L22.4678691,1.19790503 C22.4678691,1.19790503 22.1699664,0.786871508 21.7036074,0.786871508 C20.9784396,0.786871508 20.3739933,1.66022346 20.3739933,2.66371508 C20.3739933,3.31148045 20.6963926,3.94617318 21.355453,3.94617318 C21.8295302,3.94617318 22.0923658,3.61600559 22.0923658,3.61600559 L22.0575503,3.89798883 L22.827349,3.89798883 L23.4319631,0.138519553 L22.6385906,0.139776536 L22.6385906,0.139776536 Z M22.271057,2.20290503 C22.271057,2.62047486 22.064094,3.17824022 21.6349832,3.17824022 C21.3501678,3.17824022 21.2166946,2.93941341 21.2166946,2.56458101 C21.2166946,1.95167598 21.4922819,1.54726257 21.8400168,1.54726257 C22.1249161,1.54717877 22.271057,1.74268156 22.271057,2.20290503 L22.271057,2.20290503 Z" id="path4139"></path>
                                <polygon id="path4133" points="0.794127517 3.90125698 1.27592282 1.06298883 1.3466443 3.90125698 1.89194631 3.90125698 2.9091443 1.06298883 2.45855705 3.90125698 3.26879195 3.90125698 3.89278523 0.136759777 2.63984899 0.136759777 1.85956376 2.44650838 1.81895973 0.136759777 0.664010067 0.136759777 0.0310402685 3.90125698"></polygon>
                                <path d="M12.9880872,3.90645251 C13.2184564,2.59784916 13.2611577,1.53527933 13.810906,1.72977654 C13.9071309,1.22329609 14,1.0273743 14.1050336,0.81301676 C14.1050336,0.81301676 14.0557886,0.802709497 13.9524329,0.802709497 C13.5979866,0.802709497 13.3354027,1.28639665 13.3354027,1.28639665 L13.4059564,0.842178771 L12.6690436,0.842178771 L12.1753356,3.90645251 L12.9880872,3.90645251 L12.9880872,3.90645251 Z" id="path4131"></path>
                                <g id="use8523" transform="translate(16.359581, 0.754190)">
                                    <path d="M1.54941275,0.0119832402 C1.00671141,0.0119832402 0.590687919,0.186201117 0.590687919,0.186201117 L0.475922819,0.867234637 C0.475922819,0.867234637 0.819295302,0.727877095 1.33833893,0.727877095 C1.63305369,0.727877095 1.84848993,0.760977654 1.84848993,1.00022346 C1.84848993,1.14553073 1.82223154,1.19916201 1.82223154,1.19916201 C1.82223154,1.19916201 1.5897651,1.17972067 1.48204698,1.17972067 C0.797651007,1.17972067 0.0786073826,1.47150838 0.0786073826,2.35122905 C0.0786073826,3.04441341 0.550251678,3.20346369 0.84261745,3.20346369 C1.40100671,3.20346369 1.64169463,2.84153631 1.65444631,2.84044693 L1.62852349,3.1425419 L2.32541946,3.1425419 L2.63624161,0.965363128 C2.6363255,0.0417318436 1.82961409,0.0119832402 1.54941275,0.0119832402 L1.54941275,0.0119832402 Z M1.71921141,1.7846648 C1.73431208,1.91765363 1.63565436,2.54103352 1.15897651,2.54103352 C0.913171141,2.54103352 0.849412752,2.35349162 0.849412752,2.2425419 C0.849412752,2.02617318 0.967114094,1.76639665 1.54697987,1.76639665 C1.68187919,1.76656425 1.69622483,1.78097765 1.71921141,1.7846648 L1.71921141,1.7846648 Z" id="path4149_1_"></path>
                                </g>
                                <g id="use8525" transform="translate(18.815914, 0.754190)">
                                    <path d="M0.816862416,3.15226257 C1.04731544,1.84365922 1.09001678,0.781089385 1.63959732,0.975586592 C1.73598993,0.469106145 1.82894295,0.273184358 1.93389262,0.0588268156 C1.93389262,0.0588268156 1.88464765,0.0485195531 1.78129195,0.0485195531 C1.42684564,0.0485195531 1.16426174,0.532206704 1.16426174,0.532206704 L1.23481544,0.0879888268 L0.497902685,0.0879888268 L0.00419463087,3.15226257 L0.816862416,3.15226257 L0.816862416,3.15226257 Z" id="path4131_1_"></path>
                                </g>
                            </g>
                        </g>
                    </g>
                </g>
            </g>
        </g>
    </g>
</svg>