<?xml version="1.0" encoding="UTF-8"?>
<svg width="13px" height="12px" viewBox="0 0 13 12" version="1.1" xmlns="http://www.w3.org/2000/svg" xmlns:xlink="http://www.w3.org/1999/xlink">
    <!-- Generator: Sketch 44 (41411) - http://www.bohemiancoding.com/sketch -->
    <title>megafon@2x</title>
    <desc>Created with Sketch.</desc>
    <defs></defs>
    <g id="Page-1" stroke="none" stroke-width="1" fill="none" fill-rule="evenodd">
        <g id="Иконки" transform="translate(-1514.000000, -928.000000)" fill="#00995B">
            <g id="payments2017" transform="translate(1208.000000, 925.000000)">
                <g id="megafon" transform="translate(306.000000, 3.000000)">
                    <path d="M8.30871056,8.55352941 C8.30871056,8.20870588 8.59241739,7.92811765 8.9419528,7.92811765 C9.29256149,7.92811765 9.57591056,8.20870588 9.57591056,8.55352941 C9.57591056,8.89905882 9.29256149,9.17858824 8.9419528,9.17858824 C8.59241739,9.17858824 8.30871056,8.89905882 8.30871056,8.55352941 L8.30871056,8.55352941 Z M7.14955528,11.9901176 L5.95426584,11.9901176 L5.95426584,7.08564706 C5.95426584,7.04258824 5.95748571,6.99917647 6.0122236,6.99917647 L6.81969689,7.00235294 C7.0987528,7.00235294 7.28085466,6.81247059 7.28085466,6.48423529 L7.28085466,0.325764706 C10.2052174,0.697764706 12.4641391,3.16341176 12.4641391,6.15 C12.4641391,9.18141176 10.1372422,11.6756471 7.14955528,11.9901176 L7.14955528,11.9901176 Z M6.59359006,8.55352941 C6.59359006,8.20870588 6.87801242,7.92811765 7.22790559,7.92811765 C7.57851429,7.92811765 7.86186335,8.20870588 7.86186335,8.55352941 C7.86186335,8.89905882 7.57851429,9.17858824 7.22790559,9.17858824 C6.87801242,9.17858824 6.59359006,8.89905882 6.59359006,8.55352941 L6.59359006,8.55352941 Z M10.0238311,8.55352941 C10.0238311,8.20870588 10.3071801,7.92811765 10.6577888,7.92811765 C11.0073242,7.92811765 11.2913888,8.20870588 11.2913888,8.55352941 C11.2913888,8.89905882 11.0073242,9.17858824 10.6577888,9.17858824 C10.3071801,9.17858824 10.0238311,8.89905882 10.0238311,8.55352941 L10.0238311,8.55352941 Z" id="Fill-2"></path>
                    <path d="M0.180313043,6.15 C0.180313043,2.90576471 2.84565466,0.277058824 6.13350559,0.277058824 C6.2744646,0.277058824 6.41220373,0.281647059 6.55101615,0.291176471 L6.55101615,6.24070588 C6.55101615,6.28376471 6.54708075,6.32682353 6.49341615,6.32682353 L5.68594286,6.32329412 C5.40688696,6.32329412 5.22621615,6.51458824 5.22621615,6.84247059 L5.22621615,11.9551765 C2.36875528,11.5238824 0.180313043,9.08823529 0.180313043,6.15 L0.180313043,6.15 Z M4.44092422,4.61894118 C4.44092422,4.23423529 4.75539876,3.92364706 5.14464596,3.92364706 C5.53425093,3.92364706 5.85051429,4.23423529 5.85051429,4.61894118 C5.85051429,5.00188235 5.53425093,5.31352941 5.14464596,5.31352941 C4.75539876,5.31352941 4.44092422,5.00188235 4.44092422,4.61894118 L4.44092422,4.61894118 Z" id="Fill-3"></path>
                </g>
            </g>
        </g>
    </g>
</svg>