<?xml version="1.0" encoding="UTF-8"?>
<svg width="40px" height="11px" viewBox="0 0 40 11" version="1.1" xmlns="http://www.w3.org/2000/svg" xmlns:xlink="http://www.w3.org/1999/xlink">
    <!-- Generator: Sketch 44 (41411) - http://www.bohemiancoding.com/sketch -->
    <title>PayPal_2014_logo@2x</title>
    <desc>Created with Sketch.</desc>
    <defs></defs>
    <g id="Page-1" stroke="none" stroke-width="1" fill="none" fill-rule="evenodd">
        <g id="Иконки" transform="translate(-1343.000000, -929.000000)">
            <g id="payments2017" transform="translate(1208.000000, 925.000000)">
                <g id="PayPal_2014_logo" transform="translate(135.000000, 4.000000)">
                    <path d="M21.9025518,3.01117188 L20.4162647,3.01117188 C20.2741259,3.01117188 20.1411444,3.08171536 20.0615147,3.19968638 L18.0110518,6.22229507 L17.1422925,3.31765739 C17.0877462,3.13591826 16.920524,3.01117188 16.7310055,3.01117188 L15.2701999,3.01117188 C15.0938203,3.01117188 14.9695981,3.18494 15.0265333,3.35193275 L16.6629221,8.1608458 L15.1236814,10.33494 C15.0030425,10.5055197 15.1249555,10.7414617 15.3339036,10.7414617 L16.8185981,10.7414617 C16.9591444,10.7414617 17.0909314,10.6725125 17.1713573,10.5569328 L22.1139684,3.41570087 C22.2322184,3.24472261 22.1103692,3.01117188 21.9025518,3.01117188 M11.9660895,5.89225362 C11.8231543,6.73797826 11.1526728,7.30591304 10.2970524,7.30591304 C9.86824689,7.30591304 9.52464504,7.16761594 9.30407096,6.90616667 C9.08548763,6.6471087 9.00307096,6.27765217 9.07234874,5.86674638 C9.20533022,5.02819565 9.88695985,4.44232609 10.7294413,4.44232609 C11.1494876,4.44232609 11.4903024,4.58181884 11.7152561,4.84565942 C11.9418024,5.11149275 12.0309876,5.48294203 11.9660895,5.89225362 M14.0269043,3.01113043 L12.5481821,3.01113043 C12.421571,3.01113043 12.3136728,3.10319565 12.2937654,3.22873913 L12.2288673,3.64243478 L12.1257469,3.49257971 C11.8052376,3.02747101 11.091358,2.87163768 10.3786728,2.87163768 C8.74507096,2.87163768 7.3495617,4.11113043 7.07802467,5.84921014 C6.93668207,6.71645652 7.13734874,7.54504348 7.62866356,8.12334058 C8.07976541,8.6546087 8.72357096,8.87580435 9.49080244,8.87580435 C10.8078765,8.87580435 11.5380802,8.02928261 11.5380802,8.02928261 L11.4719876,8.44058696 C11.4473024,8.59681884 11.5679413,8.73830435 11.7264043,8.73830435 L13.0578117,8.73830435 C13.2692284,8.73830435 13.4487932,8.58486232 13.4818395,8.37602174 L14.281321,3.30884783 C14.3060061,3.15261594 14.1849691,3.01113043 14.0269043,3.01113043 M5.15325548,3.04668116 C4.98444067,4.15624638 4.1379777,4.15624638 3.31898696,4.15624638 L2.85315363,4.15624638 L3.18003326,2.08457971 C3.19952659,1.95943478 3.30744067,1.86736957 3.43405178,1.86736957 L3.64785733,1.86736957 C4.20526474,1.86736957 4.73161659,1.86736957 5.00315363,2.18501449 C5.16559807,2.37512319 5.2145703,2.6572971 5.15325548,3.04668116 M4.79691289,0.151608696 L1.70887585,0.151608696 C1.49745919,0.151608696 1.31789437,0.305449275 1.28484807,0.514289855 L0.0362554815,8.44066667 C0.0115702963,8.59689855 0.132209185,8.73838406 0.290274,8.73838406 L1.76501474,8.73838406 C1.97603326,8.73838406 2.15559807,8.58454348 2.18864437,8.37610145 L2.52587585,6.23747826 C2.558524,6.02863768 2.73848696,5.8747971 2.94950548,5.8747971 L3.92656104,5.8747971 C5.96069993,5.8747971 7.13483881,4.88957971 7.44141289,2.93628261 C7.5795703,2.08258696 7.44698696,1.41142754 7.04764437,0.941536232 C6.60848696,0.425014493 5.83010733,0.151608696 4.79691289,0.151608696" id="path14519" fill="#002F86"></path>
                    <path d="M37.7952339,0.369418261 L36.5279284,8.44086754 C36.5032432,8.59709942 36.6238821,8.73858493 36.7819469,8.73858493 L38.0568173,8.73858493 C38.2678358,8.73858493 38.4477987,8.58474435 38.4804469,8.37590377 L39.7302339,0.449526957 C39.7549191,0.293295072 39.6342802,0.151809565 39.4758173,0.151809565 L38.0496506,0.151809565 C37.9226413,0.151809565 37.8147432,0.243874783 37.7952339,0.369418261 M33.9915654,5.89225362 C33.8486302,6.73797826 33.1781487,7.30591304 32.3225284,7.30591304 C31.8937228,7.30591304 31.550121,7.16761594 31.3295469,6.90616667 C31.1105654,6.6471087 31.0285469,6.27765217 31.0978247,5.86674638 C31.2308061,5.02819565 31.9124358,4.44232609 32.7549173,4.44232609 C33.1749636,4.44232609 33.5157784,4.58181884 33.7407321,4.84565942 C33.9672784,5.11149275 34.0564636,5.48294203 33.9915654,5.89225362 M36.0523802,3.01113043 L34.573658,3.01113043 C34.4470469,3.01113043 34.3391487,3.10319565 34.3192413,3.22873913 L34.2543432,3.64243478 L34.1508247,3.49257971 C33.8307136,3.02747101 33.1168339,2.87163768 32.4041487,2.87163768 C30.7705469,2.87163768 29.3750376,4.11113043 29.1035006,5.84921014 C28.962158,6.71645652 29.1628247,7.54504348 29.6541395,8.12334058 C30.1052413,8.6546087 30.7490469,8.87580435 31.5162784,8.87580435 C32.8333524,8.87580435 33.5635561,8.02928261 33.5635561,8.02928261 L33.4974636,8.44058696 C33.4727784,8.59681884 33.5934173,8.73830435 33.7518802,8.73830435 L35.0832876,8.73830435 C35.2947043,8.73830435 35.4742691,8.58486232 35.5073154,8.37602174 L36.3067969,3.30884783 C36.3314821,3.15261594 36.210445,3.01113043 36.0523802,3.01113043 M27.1786932,3.04668116 C27.0098784,4.15624638 26.1634154,4.15624638 25.3444247,4.15624638 L24.8785913,4.15624638 L25.205471,2.08457971 C25.2249961,1.95943478 25.3328784,1.86736957 25.4594895,1.86736957 L25.673295,1.86736957 C26.2307024,1.86736957 26.7570543,1.86736957 27.0285913,2.18501449 C27.1910358,2.37512319 27.240008,2.6572971 27.1786932,3.04668116 M26.8223506,0.151608696 L23.7343136,0.151608696 C23.5228969,0.151608696 23.3433321,0.305449275 23.3102858,0.514289855 L22.0616932,8.44066667 C22.037008,8.59689855 22.158045,8.73838406 22.3157117,8.73838406 L23.9003413,8.73838406 C24.0480543,8.73838406 24.1738691,8.63077536 24.1969617,8.4849058 L24.5513136,6.23747826 C24.5839617,6.02863768 24.7639247,5.8747971 24.9749432,5.8747971 L25.9519987,5.8747971 C27.9861376,5.8747971 29.1602765,4.88957971 29.4668506,2.93628261 C29.605008,2.08258696 29.4724247,1.41142754 29.0730821,0.941536232 C28.6339247,0.425014493 27.855545,0.151608696 26.8223506,0.151608696" id="path14523" fill="#009CDE"></path>
                </g>
            </g>
        </g>
    </g>
</svg>