<?xml version="1.0" encoding="UTF-8"?>
<svg width="37px" height="15px" viewBox="0 0 37 15" version="1.1" xmlns="http://www.w3.org/2000/svg" xmlns:xlink="http://www.w3.org/1999/xlink">
    <!-- Generator: Sketch 44 (41411) - http://www.bohemiancoding.com/sketch -->
    <title>qivi@2x</title>
    <desc>Created with Sketch.</desc>
    <defs></defs>
    <g id="Page-1" stroke="none" stroke-width="1" fill="none" fill-rule="evenodd">
        <g id="Иконки" transform="translate(-1294.000000, -927.000000)" fill-rule="nonzero">
            <g id="payments2017" transform="translate(1208.000000, 925.000000)">
                <g id="qivi" transform="translate(86.000000, 2.000000)">
                    <path d="M18.2773451,6.13806818 C18.4233805,6.17454545 18.5111327,6.19909091 18.5111327,6.33289773 C18.5111327,6.39971591 18.4700398,6.50931818 18.3064867,6.50931818 C18.1895929,6.50931818 16.6581858,6.32676136 16.1786593,5.15198864 C15.0210177,4.9575 14.5827478,3.94107955 14.5827478,2.955 C14.5827478,1.44545455 15.4362035,0.678579545 16.4533761,0.678579545 C17.5581372,0.678579545 18.3064867,1.59153409 18.3064867,2.90625 C18.3064867,3.63051136 18.0550177,4.68357955 17.0088673,5.09130682 C17.2015619,5.77909091 17.9265,6.04090909 18.2773451,6.13806818 M17.2015619,1.65255682 C16.9386327,1.22642045 16.5820575,1.18994318 16.4474823,1.18994318 C16.1668717,1.18994318 15.863177,1.34829545 15.6642611,1.67079545 C15.459615,2.01153409 15.4067345,2.49852273 15.4067345,2.90625 C15.4067345,3.28363636 15.453885,3.78886364 15.6642611,4.16011364 C15.9564956,4.66517045 16.3657876,4.66517045 16.4417522,4.66517045 C16.7282566,4.66517045 17.0439027,4.50698864 17.2542788,4.12363636 C17.4528673,3.75238636 17.4879027,3.24102273 17.4820088,2.88204545 C17.4820088,2.58988636 17.4471372,2.04818182 17.2015619,1.65255682" id="Fill-2" fill="#0174BD"></path>
                    <path d="M20.2331062,4.93909091 C20.2331062,5.05482955 20.1805531,5.07306818 20.1044248,5.07306818 L19.560885,5.07306818 C19.4788628,5.06710227 19.4322035,5.04886364 19.4322035,4.93909091 L19.4322035,0.90375 C19.4380973,0.818693182 19.449885,0.776079545 19.5549912,0.776079545 L20.1103186,0.776079545 C20.1980708,0.776079545 20.2331062,0.794488636 20.2331062,0.90375 L20.2331062,4.93909091" id="Fill-3" fill="#0174BD"></path>
                    <path d="M23.5575398,2.35857955 L22.7739912,4.95136364 C22.7450133,5.04272727 22.7330619,5.06079545 22.674615,5.06710227 C22.6570973,5.07306818 22.4992743,5.07306818 22.4116858,5.07306818 C22.3064159,5.07306818 22.2772743,5.05482955 22.2481327,4.9575 L21.1548319,0.964772727 C21.1371504,0.897784091 21.1371504,0.891647727 21.1371504,0.867443182 C21.1371504,0.794488636 21.190031,0.776079545 21.2483142,0.776079545 L21.7979115,0.776079545 C21.8971239,0.776079545 21.9205354,0.781875 21.9500044,0.909886364 L22.6220619,3.68539773 L23.4404823,0.897784091 C23.4694602,0.812556818 23.4814115,0.776079545 23.5455885,0.776079545 L23.7679159,0.776079545 C23.8086814,0.788181818 23.8145752,0.800284091 23.8499381,0.916022727 L24.6796549,3.68539773 L25.3580973,0.897784091 C25.3811814,0.800284091 25.4104867,0.776079545 25.4923451,0.776079545 L25.8898496,0.776079545 C25.9541903,0.776079545 26.0069071,0.776079545 26.0069071,0.855170455 C26.0069071,0.879545455 26.0008496,0.90375 25.9892257,0.964772727 L24.9136062,4.95136364 C24.8844646,5.04886364 24.8669469,5.07306818 24.7849248,5.07306818 L24.4985841,5.07306818 C24.4399735,5.06710227 24.4227832,5.04886364 24.3933142,4.9575 L23.5575398,2.35857955" id="Fill-4" fill="#0174BD"></path>
                    <path d="M27.7257699,4.93909091 C27.7257699,5.05482955 27.6732168,5.07306818 27.5972522,5.07306818 L27.0537124,5.07306818 C26.9716903,5.06710227 26.9248673,5.04886364 26.9248673,4.93909091 L26.9248673,0.90375 C26.9307611,0.818693182 26.9425487,0.776079545 27.0478186,0.776079545 L27.603146,0.776079545 C27.6908982,0.776079545 27.7257699,0.794488636 27.7257699,0.90375 L27.7257699,4.93909091" id="Fill-5" fill="#0174BD"></path>
                    <path d="M17.3204204,9.55278409 L16.5368717,12.1455682 C16.5077301,12.2367614 16.4961062,12.2551705 16.4374956,12.2611364 C16.4199779,12.2671023 16.2621549,12.2671023 16.1745664,12.2671023 C16.0692965,12.2671023 16.0403186,12.2488636 16.0110133,12.1515341 L14.9177124,8.15880682 C14.9001947,8.09198864 14.9001947,8.08602273 14.9001947,8.06130682 C14.9001947,7.98835227 14.9527478,7.97028409 15.0111947,7.97028409 L15.5606283,7.97028409 C15.6600044,7.97028409 15.6834159,7.97607955 15.712885,8.10409091 L16.3851062,10.8796023 L17.2035265,8.09198864 C17.2326681,8.00676136 17.244292,7.97028409 17.3086327,7.97028409 L17.5306327,7.97028409 C17.5715619,7.98238636 17.577292,7.99448864 17.6128186,8.11022727 L18.4425354,10.8796023 L19.1208142,8.09198864 C19.1442257,7.99448864 19.1733673,7.97028409 19.2552257,7.97028409 L19.6527301,7.97028409 C19.7170708,7.97028409 19.7696239,7.97028409 19.7696239,8.049375 C19.7696239,8.07357955 19.7638938,8.09795455 19.7521062,8.15880682 L18.6764867,12.1455682 C18.6473451,12.2427273 18.6298274,12.2671023 18.5478053,12.2671023 L18.2614646,12.2671023 C18.2030177,12.2611364 18.1856637,12.2427273 18.1561947,12.1515341 L17.3204204,9.55278409" id="Fill-6" fill="#0174BD"></path>
                    <path d="M22.3750133,10.9220455 L21.1883938,10.9220455 L20.7733717,12.1515341 C20.7381726,12.2488636 20.7208186,12.2671023 20.6212788,12.2671023 L20.2353982,12.2671023 C20.194469,12.2671023 20.1242345,12.2671023 20.1242345,12.1881818 C20.1242345,12.1759091 20.1537035,12.0847159 20.1595973,12.0724432 L21.5858982,8.08602273 C21.6148761,8.00079545 21.6325575,7.97028409 21.7262035,7.97028409 L22.0650973,7.97028409 C22.1528496,7.97028409 22.170531,7.98238636 22.2055664,8.06130682 L23.6317035,12.1029545 C23.649385,12.1394318 23.6552788,12.1636364 23.6552788,12.1881818 C23.6552788,12.2611364 23.5968319,12.2671023 23.5560664,12.2671023 L22.9655398,12.2671023 C22.8661637,12.2671023 22.8425885,12.2611364 22.801823,12.1575 L22.3750133,10.9220455 L22.3750133,10.9220455 Z M22.2288142,10.4655682 L21.7785929,9.05965909 L21.3344292,10.4655682 L22.2288142,10.4655682 L22.2288142,10.4655682 Z" id="Fill-7" fill="#0174BD"></path>
                    <path d="M25.3458186,11.7071591 L26.684531,11.7071591 C26.7839071,11.7071591 26.8012611,11.7317045 26.8012611,11.8290341 L26.8012611,12.1455682 C26.795531,12.2488636 26.7721195,12.2671023 26.6729071,12.2671023 L24.6734336,12.2671023 C24.5976327,12.2671023 24.5563761,12.2551705 24.5563761,12.1455682 L24.5563761,8.09198864 C24.5563761,7.98835227 24.5917389,7.97028409 24.6791637,7.97028409 L25.223031,7.97028409 C25.3165133,7.97028409 25.3458186,7.98835227 25.3458186,8.09198864 L25.3458186,11.7071591" id="Fill-8" fill="#0174BD"></path>
                    <path d="M28.5343673,11.7071591 L29.8729159,11.7071591 C29.972292,11.7071591 29.9898097,11.7317045 29.9898097,11.8290341 L29.9898097,12.1455682 C29.9840796,12.2488636 29.9606681,12.2671023 29.861292,12.2671023 L27.8619823,12.2671023 C27.7860177,12.2671023 27.7450885,12.2551705 27.7450885,12.1455682 L27.7450885,8.09198864 C27.7450885,7.98835227 27.7802876,7.97028409 27.8678761,7.97028409 L28.4114159,7.97028409 C28.5050619,7.97028409 28.5343673,7.98835227 28.5343673,8.09198864 L28.5343673,11.7071591" id="Fill-9" fill="#0174BD"></path>
                    <path d="M31.7227522,10.3014205 L31.7227522,11.7132955 L33.1082876,11.7132955 C33.1958761,11.7132955 33.2426991,11.7194318 33.2426991,11.8351705 L33.2426991,12.1881818 C33.2307478,12.2488636 33.2075,12.2671023 33.1082876,12.2671023 L31.0737788,12.2671023 C30.9744027,12.2671023 30.9336372,12.2551705 30.9336372,12.1273295 L30.9336372,8.13460227 C30.9336372,8.00079545 30.9685088,7.97028409 31.0737788,7.96414773 L33.1082876,7.96414773 C33.190146,7.96414773 33.2485929,7.96414773 33.2426991,8.07971591 L33.2426991,8.37784091 C33.2485929,8.49954545 33.2075,8.51164773 33.1082876,8.51164773 L31.7227522,8.51164773 L31.7227522,9.76568182 L32.891854,9.76568182 C32.9794425,9.76568182 33.0146416,9.77778409 33.0146416,9.88142045 L33.0146416,10.1797159 C33.0146416,10.2891477 32.9794425,10.3014205 32.8859602,10.3014205 L31.7227522,10.3014205" id="Fill-10" fill="#0174BD"></path>
                    <path d="M35.8826327,8.51164773 L35.8826327,12.1210227 C35.8826327,12.2248295 35.8590575,12.2671023 35.7598451,12.2671023 L35.2277655,12.2671023 C35.1224956,12.2611364 35.0874602,12.2427273 35.0874602,12.1210227 L35.0874602,8.51164773 L34.2048628,8.51164773 C34.0995929,8.51164773 34.0760177,8.47534091 34.0760177,8.37784091 L34.0760177,8.09198864 C34.0760177,7.98238636 34.1172743,7.96414773 34.2048628,7.96414773 L36.7711239,7.96414773 C36.8529823,7.96414773 36.8996416,7.97607955 36.8996416,8.07971591 L36.8996416,8.37784091 C36.8996416,8.47534091 36.8763938,8.51164773 36.7711239,8.51164773 L35.8826327,8.51164773" id="Fill-11" fill="#0174BD"></path>
                    <path d="M10.7460442,10.0641477 C10.612615,10.0125 10.6014823,10.1763068 10.6345531,10.2847159 C10.7098628,10.5363068 10.8097301,10.7275568 10.8832389,10.7655682 C10.9541283,10.81125 11.036969,10.7067614 10.9837611,10.4570455 C10.9614956,10.3474432 10.8825841,10.1192045 10.7460442,10.0641477" id="Fill-12" fill="#EB8B2D"></path>
                    <path d="M13.4339469,14.5061932 C13.0493761,13.6878409 12.3674956,13.0859659 11.6271681,12.6269318 C11.3712788,12.4656818 11.0829735,12.3519886 10.828885,12.2664205 C10.2488363,12.0707386 9.68794248,12.024375 9.03274779,11.9077841 C8.50050442,11.8116477 8.08040708,11.5839205 7.62953097,11.2622727 C7.39492478,11.0952273 7.20223009,10.8647727 7.04227876,10.6191477 C7.01280973,10.5709091 6.86235398,10.3798295 6.87659735,10.3148864 C6.87659735,10.3148864 6.77329204,10.7529545 6.98006637,11.3676136 C5.07571239,11.2772727 3.40661947,10.1744318 2.64222566,8.83431818 C1.23409735,6.37159091 1.72966814,3.38573864 3.60684513,2.06676136 C5.48271239,0.748125 8.34268142,1.67744318 9.87556195,4.05920455 C10.8357611,5.55238636 11.0829735,7.29221591 10.6692611,8.70596591 C10.6672965,8.71619318 10.663531,8.72556818 10.6596018,8.73784091 C9.84674779,8.11994318 9.10330973,8.43443182 9.10330973,8.43443182 C9.91878319,8.34732955 10.5628451,9.02488636 10.5628451,9.02488636 C10.6587832,9.11284091 10.7485,9.21051136 10.8318319,9.31875 C10.8511504,9.34602273 10.8694867,9.37210227 10.8870044,9.40005682 C11.1013097,9.70397727 11.2349027,10.0411364 11.2902389,10.3827273 C12.9113628,8.23448864 13.1767478,5.25852273 11.7458628,2.94767045 C9.91911062,0.00255681818 6.02952655,-0.748977273 3.0564292,1.26596591 C0.0826769912,3.28363636 -0.848216814,7.30278409 0.977716814,10.2485795 C2.47752655,12.67125 5.99481858,13.4094886 8.01230088,12.7421591 C8.77522124,12.4917614 11.3863407,12.2521023 13.2024513,14.4988636 C13.2024513,14.4988636 13.3606018,14.6860227 13.4460619,14.9004545 C13.4460619,14.9004545 13.470292,14.9749432 13.5380708,14.9398295 C13.5559159,14.9294318 13.6063407,14.8682386 13.4339469,14.5061932" id="Fill-13" fill="#EB8B2D"></path>
                    <path d="M9.69187168,10.5288068 C9.68925221,10.5272727 9.68810619,10.5272727 9.68630531,10.52625 C9.68155752,10.52625 9.67828319,10.5242045 9.67730088,10.5238636 C9.67140708,10.5218182 9.66780531,10.5197727 9.66338496,10.5196023 C9.66076549,10.5196023 9.65732743,10.5196023 9.65618142,10.5178977 C9.64930531,10.515 9.64390265,10.5136364 9.63571681,10.5114205 C9.55074779,10.4959091 9.46823451,10.5081818 9.39750885,10.5548864 C9.24165044,10.6696023 9.21709292,10.9213636 9.34511947,11.1238636 C9.40585841,11.2155682 9.48607965,11.2789773 9.57514159,11.3132386 C9.57514159,11.3132386 9.57628761,11.3132386 9.58087168,11.3169886 C9.583,11.3169886 9.58676549,11.3190341 9.58905752,11.3190341 C9.59364159,11.3205682 9.59675221,11.3205682 9.60133628,11.3210795 C9.60477434,11.3210795 9.60608407,11.3236364 9.60853982,11.3248295 C9.61557965,11.3261932 9.62114602,11.3302841 9.62867699,11.3302841 C9.71217257,11.3459659 9.79697788,11.3325 9.86688496,11.2859659 C10.0245442,11.1727841 10.0495929,10.9213636 9.91911062,10.719375 C9.86033628,10.6275 9.77815044,10.561875 9.69187168,10.5288068" id="Fill-14" fill="#EB8B2D"></path>
                </g>
            </g>
        </g>
    </g>
</svg>