<?xml version="1.0" encoding="UTF-8"?>
<svg width="24px" height="9px" viewBox="0 0 24 9" version="1.1" xmlns="http://www.w3.org/2000/svg" xmlns:xlink="http://www.w3.org/1999/xlink">
    <!-- Generator: Sketch 44 (41411) - http://www.bohemiancoding.com/sketch -->
    <title>tele2@2x</title>
    <desc>Created with Sketch.</desc>
    <defs></defs>
    <g id="Page-1" stroke="none" stroke-width="1" fill="none" fill-rule="evenodd">
        <g id="Иконки" transform="translate(-1599.000000, -930.000000)" fill="#1A1918">
            <g id="payments2017" transform="translate(1208.000000, 925.000000)">
                <path d="M408.290928,12.172144 L405.696552,12.2458479 L405.696552,14 L408.290928,14 L408.290928,12.172144 L408.290928,12.172144 Z M407.391741,9.01761835 L405.696552,9.16502609 L405.696552,10.9486598 L407.391741,10.8602151 L407.391741,9.01761835 L407.391741,9.01761835 Z M405.372255,6.15790817 L403.603362,6.39376056 L403.603362,14 L405.372255,14 L405.372255,6.15790817 L405.372255,6.15790817 Z M408.290928,5.74516649 L405.696552,6.09894507 L405.696552,7.85309719 L408.290928,7.57302248 L408.290928,5.74516649 L408.290928,5.74516649 Z M412.595234,7.36665165 C412.801605,7.7941341 412.580493,8.44272816 412.079307,9.03235912 C411.298046,9.94628712 409.219597,11.8331062 409.219597,11.8331062 L412.197233,11.7299208 C414.010348,9.96102789 414.673683,8.88495138 414.791609,7.54354094 C414.850573,6.821243 414.585239,6.1431674 414.084052,5.65672185 C413.523903,5.12605398 412.69842,4.90494237 411.799232,5.03760934 L411.799232,6.98339152 C412.167752,6.95390997 412.462567,7.08657694 412.595234,7.36665165 L412.595234,7.36665165 Z M410.8116,8.67858054 C410.723156,7.49931861 411.091675,7.21924391 411.445454,7.05709539 L411.445454,5.08183166 C409.691302,5.45035101 408.836337,6.74753913 408.939522,8.85546983 L410.8116,8.67858054 L410.8116,8.67858054 Z M414.894795,14 L414.894795,11.9805139 L408.851077,12.1574032 L408.865818,14 L414.894795,14 L414.894795,14 Z M393.417487,14 L393.417487,9.41561925 L392.120299,9.54828622 L392.120299,14 L393.417487,14 L393.417487,14 Z M396.586753,8.85546983 L398.547276,8.649099 L398.547276,7.11605849 L396.586753,7.38139242 L396.586753,8.85546983 L396.586753,8.85546983 Z M396.586753,14 L398.547276,14 L398.547276,12.4669595 L396.586753,12.5259226 L396.586753,14 L396.586753,14 Z M400.596244,6.821243 L399.063203,7.04235462 L399.063203,14 L400.596244,14 L400.596244,6.821243 L400.596244,6.821243 Z M400.891059,14 L403.131657,14 L403.131657,12.3342925 L400.891059,12.3932556 L400.891059,14 L400.891059,14 Z M394.508304,7.6762079 L391,8.17739422 L391.014741,9.47458235 L394.508304,9.09132222 L394.508304,7.6762079 L394.508304,7.6762079 Z M397.869201,9.8431017 L396.586753,9.94628712 L396.586753,11.4498461 L397.869201,11.3761422 L397.869201,9.8431017 L397.869201,9.8431017 Z M396.33616,7.42561474 L394.99475,7.61724481 L394.99475,14 L396.33616,14 L396.33616,7.42561474 L396.33616,7.42561474 Z" id="tele2"></path>
            </g>
        </g>
    </g>
</svg>