<?xml version="1.0" encoding="UTF-8"?>
<svg width="37px" height="12px" viewBox="0 0 37 12" version="1.1" xmlns="http://www.w3.org/2000/svg" xmlns:xlink="http://www.w3.org/1999/xlink">
    <!-- Generator: Sketch 44 (41411) - http://www.bohemiancoding.com/sketch -->
    <title>visa@2x</title>
    <desc>Created with Sketch.</desc>
    <defs></defs>
    <g id="Page-1" stroke="none" stroke-width="1" fill="none" fill-rule="evenodd">
        <g id="Иконки" transform="translate(-1208.000000, -928.000000)">
            <g id="payments2017" transform="translate(1208.000000, 925.000000)">
                <g id="visa" transform="translate(0.000000, 3.000000)">
                    <path d="M12.614245,11.3866064 L14.3696266,0.394935896 L17.175541,0.394935896 L15.4203199,11.3866064 L12.614245,11.3866064 Z M25.5982593,0.664723919 L25.2182316,3.0475268 L24.9662706,2.92172312 C24.448547,2.69836072 23.7841403,2.48457562 22.8663283,2.49950974 C21.7673291,2.49950974 21.2595556,2.98843966 21.2589136,3.44539109 C21.2520128,3.96126735 21.8538304,4.29890819 22.8343919,4.80845369 C24.4536825,5.59249469 25.2013807,6.5422719 25.1912701,7.79511424 C25.1688023,10.0759756 23.2530965,11.5495831 20.3048321,11.5495831 C19.0459902,11.5356229 17.8330468,11.2698931 17.1787507,10.9637437 L17.5711358,8.50334838 L17.9320659,8.67833724 C18.8548529,9.08870074 19.4516955,9.2547616 20.5750883,9.2547616 C21.3818449,9.2547616 22.2470179,8.9174454 22.2545607,8.18129096 C22.2588938,7.69999042 21.8915443,7.35553183 20.7981621,6.8172544 C19.734309,6.29212549 18.3231671,5.41085041 18.3408204,3.83108083 C18.3570294,1.69517781 20.3098071,0.203389646 23.0839456,0.203389646 C24.1709084,0.203389646 25.0434637,0.444121077 25.5982593,0.664723919 Z M29.3345035,7.4896142 C29.5670459,6.85783623 30.4522794,4.41740715 30.4522794,4.41740715 C30.43591,4.44630141 30.6835379,3.78059703 30.8252459,3.36861026 L31.0146178,4.31660187 C31.0146178,4.31660187 31.553044,6.94013619 31.6639389,7.4896142 L29.3345035,7.4896142 Z M32.7961584,0.406136482 L35.0670169,11.3905023 L32.4626712,11.3905023 C32.4626712,11.3905023 32.2050933,10.127271 32.1209993,9.74369151 C31.7122448,9.74369151 28.8485559,9.73801006 28.527105,9.73801006 C28.4179754,10.0353937 27.9371633,11.3905023 27.9371633,11.3905023 L24.9900223,11.3905023 L29.1570075,1.31727979 C29.4516574,0.600604624 29.9550978,0.406136482 30.6276892,0.406136482 L32.7961584,0.406136482 Z M10.2602555,0.404188554 L13.2337159,0.404188554 L8.8149303,11.3752435 L5.84532149,11.3770291 L3.33277309,1.7640046 C5.11479515,2.71719069 6.70792673,4.61950467 7.21971243,6.37458777 L7.51388087,7.89786744 L10.2602555,0.404188554 Z M35.8654282,10.668308 L35.8654282,10.4735152 L35.9857918,10.4735152 C36.0621825,10.4735152 36.1114513,10.4913712 36.1114513,10.568152 C36.1114513,10.612792 36.0921931,10.668308 35.9983096,10.668308 L35.8654282,10.668308 Z M35.7506817,10.388131 L36.024629,10.388131 C36.088502,10.388131 36.2286051,10.4051754 36.2286051,10.568152 C36.2286051,10.6113311 36.2159268,10.6722038 36.12429,10.7118117 L36.12429,10.7152206 C36.203409,10.7288561 36.2075816,10.8045006 36.2122357,10.8653734 C36.2180131,10.9624451 36.2122357,10.9798141 36.2372713,11.0140652 L36.1183521,11.0140652 C36.0957238,10.9910147 36.1008593,10.9729964 36.0957238,10.8712172 C36.0957238,10.8134286 36.088502,10.7545038 35.9597932,10.7545038 L35.8654282,10.7545038 L35.8654282,11.0140652 L35.7506817,11.0140652 L35.7506817,10.388131 L35.7506817,10.388131 Z M35.9769651,11.2377523 C36.2584553,11.2377523 36.4796032,11.0014037 36.4796032,10.7061303 C36.4796032,10.4105322 36.2584553,10.1743459 35.9769651,10.1743459 C35.6956354,10.1743459 35.474648,10.4105322 35.474648,10.7061303 C35.474648,11.0014037 35.6956354,11.2377523 35.9769651,11.2377523 L35.9769651,11.2377523 Z M35.9769651,10.0792221 C36.3240935,10.0792221 36.596757,10.3602107 36.596757,10.7061303 C36.596757,11.0518875 36.3240935,11.3328761 35.9769651,11.3328761 C35.6299972,11.3328761 35.3576547,11.0518875 35.3576547,10.7061303 C35.3576547,10.3602107 35.6299972,10.0792221 35.9769651,10.0792221 L35.9769651,10.0792221 Z" id="Combined-Shape" fill="#2B3894"></path>
                    <path d="M4.96442099,6.37458777 L0.439554993,6.37458777 L0.402162058,6.14684253 C3.92319629,5.23634853 6.25279213,3.0385988 7.21971243,0.396721497 L6.23642269,5.44721173 C6.06679037,6.14375831 5.57378139,6.35023867 4.96442099,6.37458777" id="path30" fill="#F79510" transform="translate(3.810937, 3.385655) scale(1, -1) translate(-3.810937, -3.385655) "></path>
                </g>
            </g>
        </g>
    </g>
</svg>