<?xml version="1.0" encoding="UTF-8"?>
<svg width="12px" height="12px" viewBox="0 0 12 12" version="1.1" xmlns="http://www.w3.org/2000/svg" xmlns:xlink="http://www.w3.org/1999/xlink">
    <!-- Generator: Sketch 44 (41411) - http://www.bohemiancoding.com/sketch -->
    <title>wm@2x</title>
    <desc>Created with Sketch.</desc>
    <defs></defs>
    <g id="Page-1" stroke="none" stroke-width="1" fill="none" fill-rule="evenodd">
        <g id="Иконки" transform="translate(-1395.000000, -928.000000)" fill="#0E6BB2">
            <g id="payments2017" transform="translate(1208.000000, 925.000000)">
                <g id="wm" transform="translate(187.000000, 3.000000)">
                    <path d="M5.9994095,0.02904 C6.93178553,0.02904 7.81479273,0.24648 8.60121914,0.63252 C8.72476107,0.6912 8.8479435,0.75576 8.97148543,0.82704 L8.42483339,1.317 L7.60353724,0.46656 L6.21737531,1.70472 L5.3940421,0.80484 L2.81188413,3.13572 L4.46729795,4.96272 L3.81675567,5.53572 L5.44724541,7.36548 L4.8005376,7.93716 L7.13045916,10.53432 L8.51350558,9.2592 L9.70926196,10.62564 C9.47140482,10.8108 9.21233825,10.98504 8.92690968,11.14608 C8.06223606,11.63988 7.06287657,11.9226 5.9994095,11.9226 C2.72884383,11.9226 0.0613688377,9.25092 0.0613688377,5.976 C0.0613688377,2.70036 2.72884383,0.02904 5.9994095,0.02904" id="Fill-1"></path>
                    <polyline id="Fill-2" points="4.91724937 5.60004 6.32929399 4.3266 7.60078122 5.74104 6.18885642 7.014 4.91724937 5.60004"></polyline>
                    <polyline id="Fill-3" points="5.92128212 8.04348 7.33344656 6.7704 8.60505362 8.18448 7.193009 9.45792 5.92128212 8.04348"></polyline>
                    <polyline id="Fill-4" points="3.90686578 3.18516 5.3189104 1.91208 6.59003814 3.32616 5.17799352 4.59924 3.90686578 3.18516"></polyline>
                    <polyline id="Fill-5" points="6.4980108 2.49984 7.55704426 1.54512 8.5105099 2.60568 7.45147643 3.56076 6.4980108 2.49984"></polyline>
                    <polyline id="Fill-6" points="8.37965851 6.87372 9.43905146 5.91864 10.3925171 6.97944 9.33348363 7.93428 8.37965851 6.87372"></polyline>
                    <polyline id="Fill-7" points="9.31131558 9.01596 10.3701094 8.06076 11.3238147 9.12132 10.2647812 10.07616 9.31131558 9.01596"></polyline>
                    <polyline id="Fill-8" points="9.73790068 4.10616 10.443923 3.46956 11.0794869 4.1766 10.373824 4.81308 9.73790068 4.10616"></polyline>
                    <polyline id="Fill-9" points="8.83584095 2.00532 9.54186326 1.36884 10.177547 2.07588 9.47140482 2.71236 8.83584095 2.00532"></polyline>
                    <polyline id="Fill-10" points="10.6405596 6.20688 11.3465819 5.57028 11.9822656 6.2772 11.2762433 6.9138 10.6405596 6.20688"></polyline>
                    <polyline id="Fill-11" points="7.47424361 4.63272 8.53315725 3.67752 9.48662289 4.73808 8.4279489 5.69292 7.47424361 4.63272"></polyline>
                </g>
            </g>
        </g>
    </g>
</svg>