<?xml version="1.0" encoding="UTF-8"?>
<svg width="23px" height="16px" viewBox="0 0 23 16" version="1.1" xmlns="http://www.w3.org/2000/svg" xmlns:xlink="http://www.w3.org/1999/xlink">
    <!-- Generator: Sketch 47.1 (45422) - http://www.bohemiancoding.com/sketch -->
    <title>label</title>
    <desc>Created with Sketch.</desc>
    <defs></defs>
    <g id="Page-1" stroke="none" stroke-width="1" fill="none" fill-rule="evenodd">
        <g id="Меню-ещё" transform="translate(-866.000000, -117.000000)">
            <g id="Group-6" transform="translate(689.000000, 98.000000)">
                <g id="label" transform="translate(177.000000, 19.000000)">
                    <path d="M6.77704055,4.17966315e-16 L20,4.17966315e-16 C21.6568542,2.92576421e-15 23,1.26413718 23,2.82352941 L23,13.1764706 C23,14.7358628 21.6568542,16 20,16 L6.69758105,16 C5.73866305,16 4.83752377,15.568561 4.27286159,14.8391156 L0.575284346,10.0624886 C-0.151506169,9.12360162 -0.193159306,7.86158065 0.470313542,6.88204741 L4.24735029,1.30573325 C4.79825875,0.492386999 5.75219525,2.08983158e-16 6.77704055,4.17966315e-16 Z" id="Rectangle-8" fill="#FF4C00" fill-rule="nonzero"></path>
                    <path d="M7.56494141,5.52159926 C7.56494141,4.68793624 7.74796366,4.07010388 8.11401367,3.66808364 C8.48006368,3.2660634 8.97623385,3.0650563 9.60253906,3.0650563 C10.2500032,3.0650563 10.7567527,3.26500547 11.1228027,3.66490981 C11.4888527,4.06481415 11.671875,4.68370445 11.671875,5.52159926 C11.671875,6.35526229 11.4888527,6.97309465 11.1228027,7.37511489 C10.7567527,7.77713513 10.2605826,7.97814223 9.63427734,7.97814223 C8.98681317,7.97814223 8.48006368,7.77819306 8.11401367,7.37828872 C7.74796366,6.97838437 7.56494141,6.35949408 7.56494141,5.52159926 Z M8.95507812,5.50890395 C8.95507812,6.11405021 9.02490165,6.52029614 9.16455078,6.72765395 C9.27034558,6.87999846 9.41634021,6.95616958 9.60253906,6.95616958 C9.7929697,6.95616958 9.9410802,6.87999846 10.046875,6.72765395 C10.1822923,6.52029614 10.25,6.11405021 10.25,5.50890395 C10.25,4.9037577 10.1822923,4.49962762 10.046875,4.29650161 C9.9410802,4.1399253 9.7929697,4.06163833 9.60253906,4.06163833 C9.41634021,4.06163833 9.27034558,4.13780944 9.16455078,4.29015395 C9.02490165,4.49751176 8.95507812,4.9037577 8.95507812,5.50890395 Z M10.9609375,12.8848805 L9.640625,12.8848805 L14.5981445,3.0650563 L15.8803711,3.0650563 L10.9609375,12.8848805 Z M13.8427734,10.4410329 C13.8427734,9.60736984 14.0257957,8.98953747 14.3918457,8.58751723 C14.7578957,8.18549699 15.2582976,7.98448989 15.8930664,7.98448989 C16.532067,7.98448989 17.0345848,8.18549699 17.4006348,8.58751723 C17.7666848,8.98953747 17.949707,9.60736984 17.949707,10.4410329 C17.949707,11.2789277 17.7666848,11.8988759 17.4006348,12.3008961 C17.0345848,12.7029164 16.5384146,12.9039235 15.9121094,12.9039235 C15.2646452,12.9039235 14.7578957,12.7029164 14.3918457,12.3008961 C14.0257957,11.8988759 13.8427734,11.2789277 13.8427734,10.4410329 Z M15.2329102,10.4346852 C15.2329102,11.0398315 15.3027337,11.4439615 15.4423828,11.6470875 C15.5481776,11.8036638 15.6941722,11.8819508 15.8803711,11.8819508 C16.0708017,11.8819508 16.2167964,11.8057797 16.3183594,11.6534352 C16.4580085,11.4460774 16.527832,11.0398315 16.527832,10.4346852 C16.527832,9.82953895 16.4601244,9.42329301 16.324707,9.2159352 C16.2189122,9.06359069 16.0708017,8.98741958 15.8803711,8.98741958 C15.6899405,8.98741958 15.5439458,9.06359069 15.4423828,9.2159352 C15.3027337,9.42329301 15.2329102,9.82953895 15.2329102,10.4346852 Z" id="%" fill="#FFFFFF"></path>
                </g>
            </g>
        </g>
    </g>
</svg>