<?xml version="1.0" encoding="UTF-8"?>
<svg width="14px" height="14px" viewBox="0 0 14 14" version="1.1" xmlns="http://www.w3.org/2000/svg" xmlns:xlink="http://www.w3.org/1999/xlink">
    <!-- Generator: Sketch 46.2 (44496) - http://www.bohemiancoding.com/sketch -->
    <title>close</title>
    <desc>Created with Sketch.</desc>
    <defs></defs>
    <g id="Page-1" stroke="none" stroke-width="1" fill="none" fill-rule="evenodd">
        <g id="svg" transform="translate(-401.000000, -20.000000)" fill="#9D9C9F">
            <path d="M414.292023,22.1179774 C414.683028,21.7269723 414.687075,21.0970753 414.295,20.705 L414.295,20.705 C413.905639,20.3156393 413.273441,20.3165591 412.882023,20.7079774 L408,25.59 L403.117977,20.7079774 C402.726972,20.3169723 402.097075,20.3129247 401.705,20.705 L401.705,20.705 C401.315639,21.0943607 401.316559,21.7265591 401.707977,22.1179774 L406.59,27 L401.707977,31.8820226 C401.316972,32.2730277 401.312925,32.9029247 401.705,33.295 L401.705,33.295 C402.094361,33.6843607 402.726559,33.6834409 403.117977,33.2920226 L408,28.41 L412.882023,33.2920226 C413.273028,33.6830277 413.902925,33.6870753 414.295,33.295 L414.295,33.295 C414.684361,32.9056393 414.683441,32.2734409 414.292023,31.8820226 L409.41,27 L414.292023,22.1179774 Z" id="close"></path>
        </g>
    </g>
</svg>