<?xml version="1.0" encoding="UTF-8"?>
<svg width="82px" height="19px" viewBox="0 0 82 19" version="1.1" xmlns="http://www.w3.org/2000/svg" xmlns:xlink="http://www.w3.org/1999/xlink">
    <!-- Generator: Sketch 47.1 (45422) - http://www.bohemiancoding.com/sketch -->
    <title>LR_logo_RU</title>
    <desc>Created with Sketch.</desc>
    <defs></defs>
    <g id="Page-1" stroke="none" stroke-width="1" fill="none" fill-rule="evenodd">
        <g id="Шапка-во-время-скролла" transform="translate(-30.000000, -11.000000)">
            <g id="LR_logo_RU" transform="translate(30.000000, 11.000000)">
                <path d="M7.0957006,3.4655 C7.03039521,5.0435 6.95674251,6.48 6.87523353,7.776 C6.79323353,9.0715 6.68324551,10.239 6.54526946,11.2765 C6.40631138,12.3145 6.22267066,13.2325 5.99434731,14.0295 C5.76602395,14.827 5.47239521,15.516 5.11346108,16.0975 C4.88513772,16.48 4.62784431,16.7955 4.34256287,17.0445 C4.05728144,17.293 3.75923353,17.4925 3.44989222,17.6425 C3.13956886,17.792 2.83366467,17.8955 2.53217964,17.954 C2.23020359,18.012 1.9488503,18.041 1.68811976,18.041 C1.31298204,18.041 0.998730539,18.012 0.745856287,17.954 C0.492982036,17.8955 0.245017964,17.8085 0,17.692 L0.366790419,14.7525 C0.464502994,14.786 0.562215569,14.8105 0.660419162,14.827 C0.758131737,14.8435 0.856335329,14.852 0.954047904,14.852 C1.21477844,14.852 1.47207186,14.786 1.72445509,14.652 C1.97732934,14.52 2.19337725,14.2955 2.37358084,13.9795 C2.61761677,13.615 2.82973653,13.0795 3.0094491,12.373 C3.18867066,11.667 3.34776048,10.766 3.48622754,9.6695 C3.62469461,8.573 3.73517365,7.2655 3.81668263,5.7455 C3.8977006,4.2255 3.95465868,2.453 3.9880479,0.4265 L14.0931976,0.4265 L14.0931976,17.8665 L10.741018,17.8665 L10.741018,3.4655 L7.0957006,3.4655 Z" id="Fill-1" fill="#000000"></path>
                <polygon id="Fill-2" fill="#000000" points="24.1379521 10.417 24.0647904 10.417 23.0125389 12.2355 18.6572096 17.8665 16.6509102 17.8665 16.6509102 5.409 19.8317246 5.409 19.8317246 11.3385 19.6849102 13.033 19.7826228 13.033 20.7862635 11.264 25.1902036 5.409 27.196503 5.409 27.196503 17.8665 24.0161796 17.8665 24.0161796 12.1855"></polygon>
                <polygon id="Fill-3" fill="#000000" points="35.8315449 8.274 35.8315449 17.866 32.553018 17.866 32.553018 8.274 29.054515 8.274 29.054515 5.4085 39.2328263 5.4085 39.2328263 8.274"></polygon>
                <path d="M46.3118323,3.1165 C45.9857964,3.1165 45.6754731,3.129 45.3823353,3.154 C45.0887066,3.1785 44.8520359,3.208 44.6728144,3.2415 L44.6728144,8.897 C44.7376287,8.9135 44.8353413,8.9305 44.9664431,8.9465 C45.0965629,8.9635 45.236012,8.976 45.3823353,8.984 C45.5286587,8.9925 45.6715449,8.9965 45.810503,8.9965 L46.1159162,8.9965 C46.5568503,8.9965 46.9933653,8.9555 47.4249701,8.872 C47.8575569,8.7895 48.2449701,8.6355 48.5877006,8.4115 C48.9304311,8.187 49.2029461,7.8755 49.4072096,7.4765 C49.610491,7.078 49.7131138,6.555 49.7131138,5.9075 C49.7131138,5.359 49.6154012,4.9065 49.419485,4.549 C49.2240599,4.1925 48.9662754,3.9055 48.6485868,3.69 C48.3308982,3.474 47.9670539,3.324 47.56,3.2415 C47.1524551,3.158 46.7355808,3.1165 46.3118323,3.1165 M43.5842275,0.289 C44.4071737,0.214 45.2271737,0.1765 46.0427545,0.1765 C46.8907425,0.1765 47.7436407,0.2475 48.599485,0.3885 C49.4558204,0.5295 50.2272096,0.812 50.9116886,1.2355 C51.5971497,1.659 52.1554371,2.2485 52.5875329,3.004 C53.0191377,3.7605 53.2356766,4.7445 53.2356766,5.9565 C53.2356766,7.053 53.0490898,7.9795 52.6729701,8.735 C52.2978323,9.491 51.8009222,10.109 51.1807665,10.591 C50.5606108,11.073 49.855509,11.422 49.0649701,11.6375 C48.2734491,11.854 47.4534491,11.9615 46.6064431,11.9615 L46.2136287,11.9615 C46.0339162,11.9615 45.8473293,11.957 45.6509222,11.949 C45.455497,11.9405 45.263509,11.9285 45.0759401,11.912 C44.8883713,11.8955 44.7533413,11.8785 44.6723234,11.862 L44.6723234,17.8665 L41.3206347,17.8665 L41.3206347,0.6 C42.0051138,0.4675 42.7602994,0.3635 43.5842275,0.289 Z" id="Fill-4" fill="#FF4B00"></path>
                <path d="M59.6164551,7.6 C58.6221437,7.6295 58.1576407,7.8845 57.7422395,8.3815 C57.3297844,8.876 57.0916407,9.551 57.0116048,10.398 L61.5800359,10.4415 C61.6448503,9.545 61.5657964,8.8525 61.2338683,8.371 C60.9014491,7.889 60.3303952,7.5785 59.6164551,7.6 M62.1545269,17.804 C61.3153772,18.0785 60.4217246,18.2155 59.4755329,18.2155 C57.5016407,18.2155 56.0585389,17.63 55.1447545,16.4585 C54.2314611,15.2875 53.7753054,13.6805 53.7753054,11.6375 C53.7753054,9.4455 54.2889102,7.8005 55.3161198,6.7045 C56.3438204,5.608 57.7874132,5.06 59.6468982,5.06 C60.2665629,5.06 60.870515,5.143 61.4577725,5.309 C62.0450299,5.475 62.566491,5.7495 63.0236287,6.131 C63.4807665,6.5135 63.8475569,7.0285 64.124491,7.676 C64.4019162,8.3235 64.5408743,9.13 64.5408743,10.0935 C64.5408743,10.4415 64.5202515,10.8155 64.479497,11.214 C64.4387425,11.6125 64.3778563,12.0275 64.2963473,12.46 L56.9217485,12.46 C56.9708503,13.5065 57.2929581,14.295 57.7726826,14.8265 C58.2519162,15.3585 59.0287066,15.6235 60.1010898,15.6235 C60.7669102,15.6235 61.3551497,15.4915 61.8933054,15.3125 C62.5640359,15.0895 63.195485,14.7855 63.195485,14.7855 L64.1490419,16.795 C63.659497,17.1935 62.9946587,17.53 62.1545269,17.804 Z" id="Fill-5" fill="#FF4C00"></path>
                <path d="M74.8807305,7.816 C74.8807305,7.816 73.9070419,7.6145 73.1400719,7.6145 C70.956515,7.6145 69.5389461,8.8875 69.5389461,11.697 C69.5389461,14.3325 70.6201677,15.6345 72.9004551,15.6345 C73.6438563,15.6345 75.0766467,15.432 75.0766467,15.432 L75.5151257,17.6835 C74.9160838,17.878 73.7396048,18.172 72.324,18.172 C67.8851976,18.172 66.2530539,14.8735 66.2530539,11.526 C66.2530539,8.1545 68.1724431,5.1245 72.5881677,5.1245 C73.4037485,5.1245 74.4103353,5.222 75.3471976,5.4665 L74.8807305,7.816" id="Fill-6" fill="#FF4C00"></path>
                <path d="M79.9058084,8.9605 C78.9080599,8.9605 78.1003353,8.138 78.1003353,7.1225 C78.1003353,6.107 78.9080599,5.284 79.9058084,5.284 C80.9020838,5.284 81.7107904,6.107 81.7107904,7.1225 C81.7107904,8.138 80.9020838,8.9605 79.9058084,8.9605 Z" id="Fill-7" fill="#FF4C00"></path>
                <path d="M81.7107904,16.213 C81.7107904,17.228 80.9020838,18.051 79.9058084,18.051 C78.9080599,18.051 78.1003353,17.228 78.1003353,16.213 C78.1003353,15.197 78.9080599,14.374 79.9058084,14.374 C80.9020838,14.374 81.7107904,15.1975 81.7107904,16.213" id="Fill-8" fill="#FF4C00"></path>
            </g>
        </g>
    </g>
</svg>